<svg xmlns="http://www.w3.org/2000/svg" width="384.751" height="334.996" viewBox="0 0 384.751 334.996"><g transform="translate(-29.29 -372.355)"><g transform="translate(29.79 372.855)"><path d="M643.306,79.226v334h383.751v-334Z" transform="translate(-643.306 -79.226)" fill="none" stroke="#fff" stroke-width="1"/><path d="M643.306,107.218h383.751" transform="translate(-643.306 -85.47)" fill="none" stroke="#fff" stroke-width="1"/><path d="M676.039,107.218V419.465" transform="translate(-651.184 -85.47)" fill="none" stroke="#fff" stroke-width="1"/><text transform="translate(5.21 14.145)" fill="#fff" font-size="12" font-family="SimSun"><tspan x="0" y="0">portfolio.c</tspan></text><text transform="translate(5.21 39.145)" fill="#fff" font-size="13" font-family="Consolas"><tspan x="0" y="0">1</tspan><tspan x="0" y="15">2</tspan><tspan x="0" y="30">3</tspan><tspan x="0" y="45">4</tspan><tspan x="0" y="60">5</tspan><tspan x="0" y="75">6</tspan><tspan x="0" y="90">7</tspan><tspan x="0" y="105">8</tspan><tspan x="0" y="120">9</tspan><tspan x="0" y="135">10</tspan><tspan x="0" y="150">11</tspan><tspan x="0" y="165">12</tspan><tspan x="0" y="180">13</tspan><tspan x="0" y="195">14</tspan><tspan x="0" y="210">15</tspan><tspan x="0" y="225">16</tspan><tspan x="0" y="240">17</tspan><tspan x="0" y="255">18</tspan><tspan x="0" y="270">19</tspan><tspan x="0" y="285">20</tspan></text><text transform="translate(33.21 38.145)" fill="#e373fa" font-size="13" font-family="Consolas"><tspan x="0" y="0">#include </tspan><tspan y="0" fill="#82f864">&lt;stdio.h&gt;</tspan><tspan x="0" y="15"></tspan><tspan fill="#f2b438"><tspan x="0" y="30">char </tspan><tspan y="30" fill="#4094f3">find_portfolio_projects</tspan><tspan y="30" fill="#fff">(</tspan><tspan y="30">char </tspan><tspan y="30" fill="#30e2dd">**</tspan><tspan y="30" fill="#fff">)</tspan><tspan y="30" fill="#30e2dd">;</tspan></tspan><tspan x="0" y="45"></tspan><tspan fill="#f2b438"><tspan x="0" y="60">int </tspan><tspan y="60" fill="#4094f3">main</tspan><tspan y="60" fill="#fff">() {</tspan></tspan><tspan x="0" y="75" xml:space="preserve">    </tspan><tspan y="75" fill="#f2b438">char </tspan><tspan y="75" fill="#30e2dd">*</tspan><tspan y="75" fill="#fff">proj_arr[</tspan><tspan y="75" fill="#f2b438">5</tspan><tspan y="75" fill="#fff">]</tspan><tspan y="75"> </tspan><tspan y="75" fill="#30e2dd">=</tspan><tspan y="75"> </tspan><tspan y="75" fill="#fff">{&apos;</tspan><tspan y="75" fill="#30e2dd">\0</tspan><tspan y="75" fill="#fff">&apos;}</tspan><tspan y="75" fill="#30e2dd">;</tspan><tspan x="0" y="90" xml:space="preserve">    </tspan><tspan y="90" fill="#fff">proj_arr[</tspan><tspan y="90" fill="#f2b438">0</tspan><tspan y="90" fill="#fff">] </tspan><tspan y="90">= </tspan><tspan y="90" fill="#fff">&quot;</tspan><tspan y="90" fill="#82f864">Pathfinder</tspan><tspan y="90" fill="#fff">&quot;</tspan><tspan y="90" fill="#30e2dd">;</tspan><tspan x="0" y="105" xml:space="preserve">    </tspan><tspan y="105" fill="#4094f3">printf</tspan><tspan y="105" fill="#fff">(&quot;</tspan><tspan y="105" fill="#82f864">Just finished my first project! </tspan><tspan y="105" fill="#fff">&quot;)</tspan><tspan y="105" fill="#30e2dd">;</tspan><tspan x="0" y="120" xml:space="preserve">    </tspan><tspan y="120" fill="#4094f3">find_portfolio_projects</tspan><tspan y="120" fill="#fff">(proj_arr)</tspan><tspan y="120" fill="#30e2dd">;</tspan><tspan x="0" y="135" xml:space="preserve">    return </tspan><tspan y="135" fill="#f2b438">255</tspan><tspan y="135" fill="#30e2dd">;</tspan><tspan y="135"> </tspan><tspan fill="#fff"><tspan x="0" y="150">}</tspan></tspan><tspan x="0" y="165"></tspan><tspan fill="#f2b438"><tspan x="0" y="180">char </tspan><tspan y="180" fill="#4094f3">find_portfolio_projects</tspan><tspan y="180" fill="#fff">(</tspan><tspan y="180">char </tspan><tspan y="180" fill="#30e2dd">**</tspan><tspan y="180" fill="#fff">str) {</tspan></tspan><tspan x="0" y="195" xml:space="preserve">    </tspan><tspan y="195" fill="#4094f3">printf</tspan><tspan y="195" fill="#fff">(&quot;</tspan><tspan y="195" fill="#82f864">Finding projects...</tspan><tspan y="195"> </tspan><tspan y="195" fill="#fff">&quot;)</tspan><tspan y="195" fill="#30e2dd">;</tspan><tspan x="0" y="210" xml:space="preserve">    </tspan><tspan y="210" fill="#4094f3">printf</tspan><tspan y="210" fill="#fff">(&quot;</tspan><tspan y="210" fill="#82f864">ML, front-end, theoretical...</tspan><tspan y="210"> </tspan><tspan y="210" fill="#fff">&quot;)</tspan><tspan y="210" fill="#30e2dd">;</tspan><tspan x="0" y="225" xml:space="preserve">    </tspan><tspan y="225" fill="#f2b438">char </tspan><tspan y="225" fill="#fff">proj_arr_full[]</tspan><tspan y="225"> </tspan><tspan y="225" fill="#30e2dd">=</tspan><tspan y="225"> </tspan><tspan y="225" fill="#fff">&quot;</tspan><tspan y="225" fill="#82f864">False</tspan><tspan y="225" fill="#fff">&quot;</tspan><tspan y="225" fill="#30e2dd">;</tspan><tspan x="0" y="240" xml:space="preserve">    </tspan><tspan y="240" fill="#f2b438">char </tspan><tspan y="240" fill="#fff">will_be_full[]</tspan><tspan y="240"> </tspan><tspan y="240" fill="#30e2dd">=</tspan><tspan y="240"> </tspan><tspan y="240" fill="#fff">&quot;</tspan><tspan y="240" fill="#82f864">Soon</tspan><tspan y="240" fill="#fff">&quot;</tspan><tspan y="240" fill="#30e2dd">;</tspan><tspan x="0" y="255" xml:space="preserve">    return </tspan><tspan y="255" fill="#fff">will_be_full</tspan><tspan y="255" fill="#30e2dd">;</tspan><tspan fill="#fff"><tspan x="0" y="270">}</tspan><tspan x="0" y="285"></tspan></tspan></text><g transform="translate(-1079.79 -694.355)"><circle cx="7.5" cy="7.5" r="7.5" transform="translate(1444 697)" fill="#ff0a0a"/><ellipse cx="8" cy="7.5" rx="8" ry="7.5" transform="translate(1425 697)" fill="#fff707"/><ellipse cx="8" cy="7.5" rx="8" ry="7.5" transform="translate(1406 697)" fill="#02ff61"/><path d="M0,0,5.6,5.6" transform="translate(1413.962 700.705) rotate(45)" fill="none" stroke="#000" stroke-linecap="round" stroke-width="1"/><path d="M0,0,5.6,5.6" transform="translate(1454.261 707.605) rotate(-180)" fill="none" stroke="#000" stroke-linecap="round" stroke-width="1"/><path d="M5.6,0,0,5.6" transform="translate(1413.948 700.691) rotate(45)" fill="none" stroke="#000" stroke-linecap="round" stroke-width="1"/><path d="M5.6,0,0,5.6" transform="translate(1454.281 707.604) rotate(-180)" fill="none" stroke="#000" stroke-linecap="round" stroke-width="1"/><path d="M5.34,0,0,5.34" transform="translate(1432.866 700.884) rotate(45)" fill="none" stroke="#000" stroke-linecap="round" stroke-width="1"/></g></g><g transform="translate(-29 99)"><g transform="translate(83 300)"><rect width="360" height="17" fill="#fbff92" opacity="0.3"/></g><path d="M8.5,0,17,16H0Z" transform="translate(79 300) rotate(90)" fill="#fff"/></g></g></svg>