<svg xmlns="http://www.w3.org/2000/svg" width="384.751" height="334.996" viewBox="0 0 384.751 334.996"><defs><style>.a,.m{fill:none;}.a{stroke:#fff;}.b,.c,.h{fill:#fff;}.b{font-size:12px;font-family:SimSun;}.c,.d{font-size:13px;font-family:Consolas;}.d{fill:#e373fa;}.e{fill:#82f864;}.f{fill:#f2b438;}.g{fill:#4094f3;}.i{fill:#30e2dd;}.j{fill:#ff0a0a;}.k{fill:#fff707;}.l{fill:#02ff61;}.m{stroke:#000;stroke-linecap:round;}.n{fill:#fbff92;opacity:0.3;}</style></defs><g transform="translate(-29.29 -719.355)"><g transform="translate(29.79 719.855)"><path class="a" d="M643.306,79.226v334h383.751v-334Z" transform="translate(-643.306 -79.226)"/><path class="a" d="M643.306,107.218h383.751" transform="translate(-643.306 -85.47)"/><path class="a" d="M676.039,107.218V419.465" transform="translate(-651.184 -85.47)"/><text class="b" transform="translate(5.21 14.145)"><tspan x="0" y="0">portfolio.c</tspan></text><text class="c" transform="translate(5.21 39.145)"><tspan x="0" y="0">1</tspan><tspan x="0" y="15">2</tspan><tspan x="0" y="30">3</tspan><tspan x="0" y="45">4</tspan><tspan x="0" y="60">5</tspan><tspan x="0" y="75">6</tspan><tspan x="0" y="90">7</tspan><tspan x="0" y="105">8</tspan><tspan x="0" y="120">9</tspan><tspan x="0" y="135">10</tspan><tspan x="0" y="150">11</tspan><tspan x="0" y="165">12</tspan><tspan x="0" y="180">13</tspan><tspan x="0" y="195">14</tspan><tspan x="0" y="210">15</tspan><tspan x="0" y="225">16</tspan><tspan x="0" y="240">17</tspan><tspan x="0" y="255">18</tspan><tspan x="0" y="270">19</tspan><tspan x="0" y="285">20</tspan></text><text class="d" transform="translate(33.21 38.145)"><tspan x="0" y="0">#include </tspan><tspan class="e" y="0">&lt;stdio.h&gt;</tspan><tspan x="0" y="15"></tspan><tspan class="f"><tspan x="0" y="30">char </tspan><tspan class="g" y="30">find_portfolio_projects</tspan><tspan class="h" y="30">(</tspan><tspan y="30">char </tspan><tspan class="i" y="30">**</tspan><tspan class="h" y="30">)</tspan><tspan class="i" y="30">;</tspan></tspan><tspan x="0" y="45"></tspan><tspan class="f"><tspan x="0" y="60">int </tspan><tspan class="g" y="60">main</tspan><tspan class="h" y="60">() {</tspan></tspan><tspan x="0" y="75" xml:space="preserve">    </tspan><tspan class="f" y="75">char </tspan><tspan class="i" y="75">*</tspan><tspan class="h" y="75">proj_arr[</tspan><tspan class="f" y="75">5</tspan><tspan class="h" y="75">]</tspan><tspan y="75"> </tspan><tspan class="i" y="75">=</tspan><tspan y="75"> </tspan><tspan class="h" y="75">{&apos;</tspan><tspan class="i" y="75">\0</tspan><tspan class="h" y="75">&apos;}</tspan><tspan class="i" y="75">;</tspan><tspan x="0" y="90" xml:space="preserve">    </tspan><tspan class="h" y="90">proj_arr[</tspan><tspan class="f" y="90">0</tspan><tspan class="h" y="90">] </tspan><tspan y="90">= </tspan><tspan class="h" y="90">&quot;</tspan><tspan class="e" y="90">Pathfinder</tspan><tspan class="h" y="90">&quot;</tspan><tspan class="i" y="90">;</tspan><tspan x="0" y="105" xml:space="preserve">    </tspan><tspan class="g" y="105">printf</tspan><tspan class="h" y="105">(&quot;</tspan><tspan class="e" y="105">Just finished my first project! </tspan><tspan class="h" y="105">&quot;)</tspan><tspan class="i" y="105">;</tspan><tspan x="0" y="120" xml:space="preserve">    </tspan><tspan class="g" y="120">find_portfolio_projects</tspan><tspan class="h" y="120">(proj_arr)</tspan><tspan class="i" y="120">;</tspan><tspan x="0" y="135" xml:space="preserve">    return </tspan><tspan class="f" y="135">255</tspan><tspan class="i" y="135">;</tspan><tspan y="135"> </tspan><tspan class="h"><tspan x="0" y="150">}</tspan></tspan><tspan x="0" y="165"></tspan><tspan class="f"><tspan x="0" y="180">char </tspan><tspan class="g" y="180">find_portfolio_projects</tspan><tspan class="h" y="180">(</tspan><tspan y="180">char </tspan><tspan class="i" y="180">**</tspan><tspan class="h" y="180">str) {</tspan></tspan><tspan x="0" y="195" xml:space="preserve">    </tspan><tspan class="g" y="195">printf</tspan><tspan class="h" y="195">(&quot;</tspan><tspan class="e" y="195">Finding projects...</tspan><tspan y="195"> </tspan><tspan class="h" y="195">&quot;)</tspan><tspan class="i" y="195">;</tspan><tspan x="0" y="210" xml:space="preserve">    </tspan><tspan class="g" y="210">printf</tspan><tspan class="h" y="210">(&quot;</tspan><tspan class="e" y="210">ML, front-end, theoretical...</tspan><tspan y="210"> </tspan><tspan class="h" y="210">&quot;)</tspan><tspan class="i" y="210">;</tspan><tspan x="0" y="225" xml:space="preserve">    </tspan><tspan class="f" y="225">char </tspan><tspan class="h" y="225">proj_arr_full[]</tspan><tspan y="225"> </tspan><tspan class="i" y="225">=</tspan><tspan y="225"> </tspan><tspan class="h" y="225">&quot;</tspan><tspan class="e" y="225">False</tspan><tspan class="h" y="225">&quot;</tspan><tspan class="i" y="225">;</tspan><tspan x="0" y="240" xml:space="preserve">    </tspan><tspan class="f" y="240">char </tspan><tspan class="h" y="240">will_be_full[]</tspan><tspan y="240"> </tspan><tspan class="i" y="240">=</tspan><tspan y="240"> </tspan><tspan class="h" y="240">&quot;</tspan><tspan class="e" y="240">Soon</tspan><tspan class="h" y="240">&quot;</tspan><tspan class="i" y="240">;</tspan><tspan x="0" y="255" xml:space="preserve">    return </tspan><tspan class="h" y="255">will_be_full</tspan><tspan class="i" y="255">;</tspan><tspan class="h"><tspan x="0" y="270">}</tspan><tspan x="0" y="285"></tspan></tspan></text><g transform="translate(-1079.79 -694.355)"><circle class="j" cx="7.5" cy="7.5" r="7.5" transform="translate(1444 697)"/><ellipse class="k" cx="8" cy="7.5" rx="8" ry="7.5" transform="translate(1425 697)"/><ellipse class="l" cx="8" cy="7.5" rx="8" ry="7.5" transform="translate(1406 697)"/><path class="m" d="M0,0,5.6,5.6" transform="translate(1413.962 700.705) rotate(45)"/><path class="m" d="M0,0,5.6,5.6" transform="translate(1454.261 707.605) rotate(-180)"/><path class="m" d="M5.6,0,0,5.6" transform="translate(1413.948 700.691) rotate(45)"/><path class="m" d="M5.6,0,0,5.6" transform="translate(1454.281 707.604) rotate(-180)"/><path class="m" d="M5.34,0,0,5.34" transform="translate(1432.866 700.884) rotate(45)"/></g></g><g transform="translate(-29 461)"><g transform="translate(83 300)"><rect class="n" width="360" height="17"/></g><path class="h" d="M8.5,0,17,16H0Z" transform="translate(79 300) rotate(90)"/></g></g></svg>