<svg xmlns="http://www.w3.org/2000/svg" width="455.053" height="260.897" viewBox="0 0 455.053 260.897"><defs><style>.a{fill:#fbff92;opacity:0.3;}.b,.d,.e{fill:#fff;}.c,.o{fill:none;}.c{stroke:#fff;}.d{font-size:12px;font-family:SimSun;}.e,.f{font-size:13px;font-family:Consolas;}.f{fill:#e373fa;}.g{fill:#f2b438;}.h{fill:#4094f3;}.i{fill:#30e2dd;}.j{fill:#f9f9f9;}.k{fill:#82f864;}.l{fill:#ff0a0a;}.m{fill:#fff707;}.n{fill:#02ff61;}.o{stroke:#000;stroke-linecap:round;}</style></defs><g transform="translate(-14.5 -635.902)"><g transform="translate(-44 543)"><g transform="translate(83 300)"><rect class="a" width="430" height="17"/></g><path class="b" d="M8.5,0,17,16H0Z" transform="translate(79 300) rotate(90)"/></g><g transform="translate(15 636.402)"><path class="c" d="M643.306,79.226v259.9h454.053V79.226Z" transform="translate(-643.306 -79.226)"/><path class="c" d="M643.306,107.218h454.054" transform="translate(-643.306 -85.47)"/><path class="c" d="M676.039,107.218V345.366" transform="translate(-651.184 -85.47)"/><text class="d" transform="translate(4.599 14.598)"><tspan x="0" y="0">resume.java</tspan></text><text class="e" transform="translate(4.599 39.598)"><tspan x="0" y="0">1</tspan><tspan x="0" y="15">2</tspan><tspan x="0" y="30">3</tspan><tspan x="0" y="45">4</tspan><tspan x="0" y="60">5</tspan><tspan x="0" y="75">6</tspan><tspan x="0" y="90">7</tspan><tspan x="0" y="105">8</tspan><tspan x="0" y="120">9</tspan><tspan x="0" y="135">10</tspan><tspan x="0" y="150">11</tspan><tspan x="0" y="165">12</tspan><tspan x="0" y="180"></tspan><tspan x="0" y="195">14</tspan><tspan x="0" y="210">15</tspan></text><text class="f" transform="translate(33.599 38.598)"><tspan x="0" y="0">public class </tspan><tspan class="g" y="0">Main {</tspan><tspan x="0" y="15" xml:space="preserve">    public static void </tspan><tspan class="h" y="15">main</tspan><tspan class="i" y="15">(</tspan><tspan y="15">String</tspan><tspan class="g" y="15">[] </tspan><tspan class="j" y="15">args</tspan><tspan class="i" y="15">) </tspan><tspan class="g" y="15">{</tspan><tspan x="0" y="30" xml:space="preserve">        </tspan><tspan class="g" y="30">System.out.</tspan><tspan class="h" y="30">println</tspan><tspan class="i" y="30">(&quot;</tspan><tspan class="k" y="30">Getting resume...</tspan><tspan class="i" y="30">&quot;);</tspan><tspan x="0" y="45" xml:space="preserve">        Resume </tspan><tspan class="b" y="45">adis_resume</tspan><tspan y="45"> </tspan><tspan class="i" y="45">=</tspan><tspan y="45" xml:space="preserve"> new </tspan><tspan class="h" y="45">Resume</tspan><tspan class="i" y="45">();</tspan><tspan class="g" y="45"></tspan><tspan class="g"><tspan x="0" y="60" xml:space="preserve">  }</tspan><tspan x="0" y="75">}</tspan></tspan><tspan x="0" y="90"></tspan><tspan x="0" y="105">class </tspan><tspan class="g" y="105">Resume {</tspan><tspan x="0" y="120" xml:space="preserve">    public void </tspan><tspan class="h" y="120">improveResume</tspan><tspan class="i" y="120">()</tspan><tspan y="120"> </tspan><tspan class="g" y="120">{</tspan><tspan x="0" y="135" xml:space="preserve">        </tspan><tspan class="g" y="135">System.out.</tspan><tspan class="h" y="135">println</tspan><tspan class="i" y="135">(&quot;</tspan><tspan class="k" y="135">Getting more experience...</tspan><tspan class="i" y="135">&quot;);</tspan><tspan x="0" y="150" xml:space="preserve">        </tspan><tspan class="g" y="150">System.out.</tspan><tspan class="h" y="150">println</tspan><tspan class="i" y="150">(&quot;</tspan><tspan class="k" y="150">Learning new languages...</tspan><tspan class="i" y="150">&quot;);</tspan><tspan x="0" y="165" xml:space="preserve">        </tspan><tspan class="g" y="165">System.out.</tspan><tspan class="h" y="165">println</tspan><tspan class="i" y="165">(</tspan><tspan class="k" y="165">&quot;Doing cool projects...</tspan><tspan class="i" y="165">&quot;);</tspan><tspan class="g"><tspan x="0" y="180" xml:space="preserve">    }</tspan><tspan x="0" y="195">}</tspan></tspan></text><g transform="translate(-1009.401 -693.902)"><circle class="l" cx="7.5" cy="7.5" r="7.5" transform="translate(1444 697)"/><ellipse class="m" cx="8" cy="7.5" rx="8" ry="7.5" transform="translate(1425 697)"/><ellipse class="n" cx="8" cy="7.5" rx="8" ry="7.5" transform="translate(1406 697)"/><path class="o" d="M0,0,5.6,5.6" transform="translate(1413.962 700.705) rotate(45)"/><path class="o" d="M0,0,5.6,5.6" transform="translate(1454.261 707.605) rotate(-180)"/><path class="o" d="M5.6,0,0,5.6" transform="translate(1413.948 700.691) rotate(45)"/><path class="o" d="M5.6,0,0,5.6" transform="translate(1454.281 707.604) rotate(-180)"/><path class="o" d="M5.34,0,0,5.34" transform="translate(1432.866 700.884) rotate(45)"/></g></g></g></svg>