<svg xmlns="http://www.w3.org/2000/svg" width="455.053" height="260.897" viewBox="0 0 455.053 260.897"><g transform="translate(-14.5 -29.902)"><g transform="translate(-44 -92)"><g transform="translate(83 300)"><rect width="430" height="17" fill="#fbff92" opacity="0.3"/></g><path d="M8.5,0,17,16H0Z" transform="translate(79 300) rotate(90)" fill="#fff"/></g><g transform="translate(15 30.402)"><path d="M643.306,79.226v259.9h454.053V79.226Z" transform="translate(-643.306 -79.226)" fill="none" stroke="#fff" stroke-width="1"/><path d="M643.306,107.218h454.054" transform="translate(-643.306 -85.47)" fill="none" stroke="#fff" stroke-width="1"/><path d="M676.039,107.218V345.366" transform="translate(-651.184 -85.47)" fill="none" stroke="#fff" stroke-width="1"/><text transform="translate(4.599 14.598)" fill="#fff" font-size="12" font-family="SimSun"><tspan x="0" y="0">resume.java</tspan></text><text transform="translate(4.599 39.598)" fill="#fff" font-size="13" font-family="Consolas"><tspan x="0" y="0">1</tspan><tspan x="0" y="15">2</tspan><tspan x="0" y="30">3</tspan><tspan x="0" y="45">4</tspan><tspan x="0" y="60">5</tspan><tspan x="0" y="75">6</tspan><tspan x="0" y="90">7</tspan><tspan x="0" y="105">8</tspan><tspan x="0" y="120">9</tspan><tspan x="0" y="135">10</tspan><tspan x="0" y="150"></tspan><tspan x="0" y="165">12</tspan><tspan x="0" y="180">13</tspan><tspan x="0" y="195">14</tspan><tspan x="0" y="210">15</tspan></text><text transform="translate(33.599 38.598)" fill="#e373fa" font-size="13" font-family="Consolas"><tspan x="0" y="0">public class </tspan><tspan y="0" fill="#f2b438">Main {</tspan><tspan x="0" y="15" xml:space="preserve">    public static void </tspan><tspan y="15" fill="#4094f3">main</tspan><tspan y="15" fill="#30e2dd">(</tspan><tspan y="15">String</tspan><tspan y="15" fill="#f2b438">[] </tspan><tspan y="15" fill="#f9f9f9">args</tspan><tspan y="15" fill="#30e2dd">) </tspan><tspan y="15" fill="#f2b438">{</tspan><tspan x="0" y="30" xml:space="preserve">        </tspan><tspan y="30" fill="#f2b438">System.out.</tspan><tspan y="30" fill="#4094f3">println</tspan><tspan y="30" fill="#30e2dd">(&quot;</tspan><tspan y="30" fill="#82f864">Getting resume...</tspan><tspan y="30" fill="#30e2dd">&quot;);</tspan><tspan x="0" y="45" xml:space="preserve">        Resume </tspan><tspan y="45" fill="#fff">adis_resume</tspan><tspan y="45"> </tspan><tspan y="45" fill="#30e2dd">=</tspan><tspan y="45" xml:space="preserve"> new </tspan><tspan y="45" fill="#4094f3">Resume</tspan><tspan y="45" fill="#30e2dd">();</tspan><tspan y="45" fill="#f2b438"></tspan><tspan fill="#f2b438"><tspan x="0" y="60" xml:space="preserve">  }</tspan><tspan x="0" y="75">}</tspan></tspan><tspan x="0" y="90"></tspan><tspan x="0" y="105">class </tspan><tspan y="105" fill="#f2b438">Resume {</tspan><tspan x="0" y="120" xml:space="preserve">    public void </tspan><tspan y="120" fill="#4094f3">improveResume</tspan><tspan y="120" fill="#30e2dd">()</tspan><tspan y="120"> </tspan><tspan y="120" fill="#f2b438">{</tspan><tspan x="0" y="135" xml:space="preserve">        </tspan><tspan y="135" fill="#f2b438">System.out.</tspan><tspan y="135" fill="#4094f3">println</tspan><tspan y="135" fill="#30e2dd">(&quot;</tspan><tspan y="135" fill="#82f864">Getting more experience...</tspan><tspan y="135" fill="#30e2dd">&quot;);</tspan><tspan x="0" y="150" xml:space="preserve">        </tspan><tspan y="150" fill="#f2b438">System.out.</tspan><tspan y="150" fill="#4094f3">println</tspan><tspan y="150" fill="#30e2dd">(&quot;</tspan><tspan y="150" fill="#82f864">Learning new languages...</tspan><tspan y="150" fill="#30e2dd">&quot;);</tspan><tspan x="0" y="165" xml:space="preserve">        </tspan><tspan y="165" fill="#f2b438">System.out.</tspan><tspan y="165" fill="#4094f3">println</tspan><tspan y="165" fill="#30e2dd">(</tspan><tspan y="165" fill="#82f864">&quot;Doing cool projects...</tspan><tspan y="165" fill="#30e2dd">&quot;);</tspan><tspan fill="#f2b438"><tspan x="0" y="180" xml:space="preserve">    }</tspan><tspan x="0" y="195">}</tspan></tspan></text><g transform="translate(-1009.401 -693.902)"><circle cx="7.5" cy="7.5" r="7.5" transform="translate(1444 697)" fill="#ff0a0a"/><ellipse cx="8" cy="7.5" rx="8" ry="7.5" transform="translate(1425 697)" fill="#fff707"/><ellipse cx="8" cy="7.5" rx="8" ry="7.5" transform="translate(1406 697)" fill="#02ff61"/><path d="M0,0,5.6,5.6" transform="translate(1413.962 700.705) rotate(45)" fill="none" stroke="#000" stroke-linecap="round" stroke-width="1"/><path d="M0,0,5.6,5.6" transform="translate(1454.261 707.605) rotate(-180)" fill="none" stroke="#000" stroke-linecap="round" stroke-width="1"/><path d="M5.6,0,0,5.6" transform="translate(1413.948 700.691) rotate(45)" fill="none" stroke="#000" stroke-linecap="round" stroke-width="1"/><path d="M5.6,0,0,5.6" transform="translate(1454.281 707.604) rotate(-180)" fill="none" stroke="#000" stroke-linecap="round" stroke-width="1"/><path d="M5.34,0,0,5.34" transform="translate(1432.866 700.884) rotate(45)" fill="none" stroke="#000" stroke-linecap="round" stroke-width="1"/></g></g></g></svg>