<svg xmlns="http://www.w3.org/2000/svg" width="313" height="186" viewBox="0 0 313 186"><g transform="translate(-3603.5 -205.5)"><g transform="translate(3546.28 66.967)"><g transform="translate(-13 -541)"><rect width="286" height="17" transform="translate(96 841)" fill="#fbff92" opacity="0.3"/></g><path d="M8.5,0,17,16H0Z" transform="translate(79 300) rotate(90)" fill="#fff"/></g><g transform="translate(3533.28 -614.033)"><path d="M643.306,79.226v185h312v-185Z" transform="translate(-572.586 740.807)" fill="none" stroke="#fff" stroke-width="1"/><path d="M643.306,107.218H955.058" transform="translate(-572.586 734.564)" fill="none" stroke="#fff" stroke-width="1"/><path d="M676.039,107.218V270.395" transform="translate(-580.464 734.564)" fill="none" stroke="#fff" stroke-width="1"/><circle cx="7.5" cy="7.5" r="7.5" transform="translate(363 823)" fill="#ff0a0a"/><ellipse cx="8" cy="7.5" rx="8" ry="7.5" transform="translate(344 823)" fill="#fff707"/><ellipse cx="8" cy="7.5" rx="8" ry="7.5" transform="translate(325 823)" fill="#02ff61"/><path d="M0,0,5.6,5.6" transform="translate(332.962 826.705) rotate(45)" fill="none" stroke="#000" stroke-linecap="round" stroke-width="1"/><path d="M0,0,5.6,5.6" transform="translate(373.261 833.605) rotate(-180)" fill="none" stroke="#000" stroke-linecap="round" stroke-width="1"/><path d="M5.6,0,0,5.6" transform="translate(332.948 826.691) rotate(45)" fill="none" stroke="#000" stroke-linecap="round" stroke-width="1"/><path d="M5.6,0,0,5.6" transform="translate(373.281 833.604) rotate(-180)" fill="none" stroke="#000" stroke-linecap="round" stroke-width="1"/><path d="M5.34,0,0,5.34" transform="translate(351.866 826.884) rotate(45)" fill="none" stroke="#000" stroke-linecap="round" stroke-width="1"/><text transform="translate(76 835)" fill="#fff" font-size="12" font-family="SimSun"><tspan x="0" y="0">home.py</tspan></text><text transform="translate(76 859)" fill="#fff" font-size="13" font-family="Consolas"><tspan x="0" y="0">1</tspan><tspan x="0" y="15">2</tspan><tspan x="0" y="30">3</tspan><tspan x="0" y="45">4</tspan><tspan x="0" y="60">5</tspan><tspan x="0" y="75">6</tspan><tspan x="0" y="90">7</tspan><tspan x="0" y="105">8</tspan><tspan x="0" y="120">9</tspan><tspan x="0" y="135"></tspan></text><text transform="translate(104 858)" fill="#e373fa" font-size="13" font-family="Consolas"><tspan x="0" y="0">def</tspan><tspan y="0" fill="#fff"> </tspan><tspan y="0" fill="#4094f3">open_home_page</tspan><tspan y="0" fill="#fff">(</tspan><tspan y="0" fill="#30e2dd">animations</tspan><tspan y="0" fill="#fff">, </tspan><tspan y="0" fill="#30e2dd">text</tspan><tspan y="0" fill="#fff">):</tspan><tspan fill="#fff"><tspan x="0" y="15" xml:space="preserve">    </tspan><tspan y="15" fill="#4094f3">print</tspan><tspan y="15">(text)</tspan><tspan x="0" y="30" xml:space="preserve">    </tspan><tspan y="30" fill="#4094f3">start_animations</tspan><tspan y="30">(animations)</tspan><tspan x="0" y="45"></tspan></tspan><tspan x="0" y="60">def</tspan><tspan y="60" fill="#fff"> </tspan><tspan y="60" fill="#4094f3">start_animations</tspan><tspan y="60" fill="#fff">(</tspan><tspan y="60" fill="#30e2dd">animations</tspan><tspan y="60" fill="#fff">):</tspan><tspan fill="#fff"><tspan x="0" y="75" xml:space="preserve">    </tspan><tspan y="75" fill="#e373fa">if </tspan><tspan y="75">animations.</tspan><tspan y="75" fill="#f2b438">are_cool</tspan><tspan y="75">: </tspan><tspan x="0" y="90" xml:space="preserve">        </tspan><tspan y="90" fill="#4094f3">print</tspan><tspan y="90">(</tspan><tspan y="90" fill="#82f864">&quot;Good to go!&quot;</tspan><tspan y="90">)</tspan><tspan x="0" y="105" xml:space="preserve">    </tspan><tspan y="105" fill="#e373fa">for </tspan><tspan y="105">animation </tspan><tspan y="105" fill="#e373fa">in </tspan><tspan y="105">animations: </tspan><tspan x="0" y="120" xml:space="preserve">        animation.</tspan><tspan y="120" fill="#4094f3">run</tspan><tspan y="120">()</tspan></tspan></text></g></g></svg>