<svg xmlns="http://www.w3.org/2000/svg" width="480.412" height="162.003" viewBox="0 0 480.412 162.003"><defs><style>.a,.c{fill:#142239;}.a,.b{stroke-dasharray:10;}.b,.d{fill:none;stroke:#f6ff00;stroke-width:2px;}.e,.f{stroke:none;}.f{fill:#f6ff00;}</style></defs><g transform="translate(-211.588 -346.728)"><g transform="translate(212 347.731)"><g class="a" transform="translate(0 19.047)"><path class="e" d="M0,0H240V141.953H0Z"/><path class="f" d="M 20 -1.52587890625e-05 L 30 -1.52587890625e-05 L 30 2.999984741210938 L 20 2.999984741210938 L 20 -1.52587890625e-05 Z M 40 -1.52587890625e-05 L 45.25515747070313 -1.52587890625e-05 L 50 -1.52587890625e-05 L 50 2.999984741210938 L 45.25515747070313 2.999984741210938 L 40 2.999984741210938 L 40 -1.52587890625e-05 Z M 60 -1.52587890625e-05 L 70 -1.52587890625e-05 L 70 2.999984741210938 L 60 2.999984741210938 L 60 -1.52587890625e-05 Z M 80 -1.52587890625e-05 L 90 -1.52587890625e-05 L 90 2.999984741210938 L 80 2.999984741210938 L 80 -1.52587890625e-05 Z M 100 -1.52587890625e-05 L 110 -1.52587890625e-05 L 110 2.999984741210938 L 100 2.999984741210938 L 100 -1.52587890625e-05 Z M 120 -1.52587890625e-05 L 130 -1.52587890625e-05 L 130 2.999984741210938 L 120 2.999984741210938 L 120 -1.52587890625e-05 Z M 140 -1.52587890625e-05 L 150 -1.52587890625e-05 L 150 2.999984741210938 L 140 2.999984741210938 L 140 -1.52587890625e-05 Z M 160 -1.52587890625e-05 L 170 -1.52587890625e-05 L 170 2.999984741210938 L 160 2.999984741210938 L 160 -1.52587890625e-05 Z M 180 -1.52587890625e-05 L 190 -1.52587890625e-05 L 190 2.999984741210938 L 180 2.999984741210938 L 180 -1.52587890625e-05 Z M 200 -1.52587890625e-05 L 210 -1.52587890625e-05 L 210 2.999984741210938 L 200 2.999984741210938 L 200 -1.52587890625e-05 Z M 220 -1.52587890625e-05 L 230 -1.52587890625e-05 L 230 2.999984741210938 L 220 2.999984741210938 L 220 -1.52587890625e-05 Z M 240.0029296875 -1.52587890625e-05 L 240.0029296875 2.999984741210938 L 240.0029296875 -1.52587890625e-05 Z M 237.0029296875 -1.52587890625e-05 L 240.0029296875 -1.52587890625e-05 C 240.0029296875 -1.52587890625e-05 240.0029296875 1.319488525390625 240.0029296875 2.999984741210938 L 240.0029296875 2.999984741210938 L 240.0029296875 2.999984741210938 C 240.0029296875 5.944625854492188 240.0029296875 9.997055053710938 240.0029296875 9.997055053710938 L 237.0029296875 9.997055053710938 L 237.0029296875 -1.52587890625e-05 Z M 237.0029296875 19.99705505371094 L 240.0029296875 19.99705505371094 C 240.0029296875 19.99705505371094 240.0029296875 29.99705505371094 240.0029296875 29.99705505371094 L 237.0029296875 29.99705505371094 L 237.0029296875 19.99705505371094 Z M 237.0029296875 39.99705505371094 L 240.0029296875 39.99705505371094 C 240.0029296875 39.99705505371094 240.0029296875 49.99705505371094 240.0029296875 49.99705505371094 L 237.0029296875 49.99705505371094 L 237.0029296875 39.99705505371094 Z M 237.0029296875 59.99705505371094 L 240.0029296875 59.99705505371094 C 240.0029296875 59.99705505371094 240.0029296875 69.99705505371094 240.0029296875 69.99705505371094 L 237.0029296875 69.99705505371094 L 237.0029296875 59.99705505371094 Z M 237.0029296875 79.99705505371094 L 240.0029296875 79.99705505371094 C 240.0029296875 79.99705505371094 240.0029296875 89.99705505371094 240.0029296875 89.99705505371094 L 237.0029296875 89.99705505371094 L 237.0029296875 79.99705505371094 Z M 237.0029296875 99.99705505371094 L 240.0029296875 99.99705505371094 C 240.0029296875 99.99705505371094 240.0029296875 109.9970550537109 240.0029296875 109.9970550537109 L 237.0029296875 109.9970550537109 L 237.0029296875 99.99705505371094 Z M 237.0029296875 119.9970550537109 L 240.0029296875 119.9970550537109 C 240.0029296875 119.9970550537109 240.0029296875 129.9970550537109 240.0029296875 129.9970550537109 L 237.0029296875 129.9970550537109 L 237.0029296875 119.9970550537109 Z M 231.9584045410156 138.9525299072266 L 240.0029296875 138.9525299072266 L 240.0029296875 139.9970550537109 L 240.0029296875 139.9970550537109 L 240.0029296875 138.9525299072266 L 240.0029296875 139.9970550537109 L 240.0029296875 139.9970550537109 C 240.0029296875 139.9970550537109 240.0029296875 141.9525299072266 240.0029296875 141.9525299072266 L 237.0029296875 141.9525299072266 L 237.0029296875 141.9525299072266 L 237.0029296875 141.9525299072266 L 237.0029296875 141.9525299072266 L 237.0029296875 141.9525299072266 C 234.7165985107422 141.9525299072266 231.9584045410156 141.9525299072266 231.9584045410156 141.9525299072266 L 231.9584045410156 138.9525299072266 Z M 211.9584045410156 138.9525299072266 L 221.9584045410156 138.9525299072266 L 221.9584045410156 141.9525299072266 C 221.9584045410156 141.9525299072266 211.9584045410156 141.9525299072266 211.9584045410156 141.9525299072266 L 211.9584045410156 138.9525299072266 Z M 191.9584045410156 138.9525299072266 L 201.9584045410156 138.9525299072266 L 201.9584045410156 141.9525299072266 C 201.9584045410156 141.9525299072266 191.9584045410156 141.9525299072266 191.9584045410156 141.9525299072266 L 191.9584045410156 138.9525299072266 Z M 171.9584045410156 138.9525299072266 L 181.9584045410156 138.9525299072266 L 181.9584045410156 141.9525299072266 C 181.9584045410156 141.9525299072266 171.9584045410156 141.9525299072266 171.9584045410156 141.9525299072266 L 171.9584045410156 138.9525299072266 Z M 151.9584045410156 138.9525299072266 L 161.9584045410156 138.9525299072266 L 161.9584045410156 141.9525299072266 C 161.9584045410156 141.9525299072266 151.9584045410156 141.9525299072266 151.9584045410156 141.9525299072266 L 151.9584045410156 138.9525299072266 Z M 131.9584045410156 138.9525299072266 L 141.9584045410156 138.9525299072266 L 141.9584045410156 141.9525299072266 C 141.9584045410156 141.9525299072266 131.9584045410156 141.9525299072266 131.9584045410156 141.9525299072266 L 131.9584045410156 138.9525299072266 Z M 111.9584045410156 138.9525299072266 L 121.9583969116211 138.9525299072266 L 121.9583969116211 141.9525299072266 C 121.9583969116211 141.9525299072266 111.9584045410156 141.9525299072266 111.9584045410156 141.9525299072266 L 111.9584045410156 138.9525299072266 Z M 91.95840454101563 138.9525299072266 L 101.9584045410156 138.9525299072266 L 101.9584045410156 141.9525299072266 C 101.9584045410156 141.9525299072266 91.95840454101563 141.9525299072266 91.95840454101563 141.9525299072266 L 91.95840454101563 138.9525299072266 Z M 71.95840454101563 138.9525299072266 L 81.95840454101563 138.9525299072266 L 81.95840454101563 141.9525299072266 C 81.95840454101563 141.9525299072266 71.95840454101563 141.9525299072266 71.95840454101563 141.9525299072266 L 71.95840454101563 138.9525299072266 Z M 51.95840454101563 138.9525299072266 L 61.95840454101563 138.9525299072266 L 61.95840454101563 141.9525299072266 C 61.95840454101563 141.9525299072266 51.95840454101563 141.9525299072266 51.95840454101563 141.9525299072266 L 51.95840454101563 138.9525299072266 Z M 31.95840454101563 138.9525299072266 L 41.95840454101563 138.9525299072266 L 41.95840454101563 141.9525299072266 C 41.95840454101563 141.9525299072266 31.95840454101563 141.9525299072266 31.95840454101563 141.9525299072266 L 31.95840454101563 138.9525299072266 Z M 11.95840454101563 138.9525299072266 L 21.95840454101563 138.9525299072266 L 21.95840454101563 141.9525299072266 C 21.95840454101563 141.9525299072266 11.95840454101563 141.9525299072266 11.95840454101563 141.9525299072266 L 11.95840454101563 138.9525299072266 Z M 0 133.9109191894531 L 3 133.9109191894531 L 3 141.9525299072266 L 1.958404541015625 141.9525299072266 L 1.958404541015625 141.9525299072266 L 3 141.9525299072266 L 1.958404541015625 141.9525299072266 L 1.958404541015625 141.9525299072266 C 1.958404541015625 141.9525299072266 0 141.9525299072266 0 141.9525299072266 L 0 133.9109191894531 Z M 0 113.9109268188477 L 3 113.9109268188477 L 3 123.9109268188477 L 0 123.9109268188477 L 0 113.9109268188477 Z M 0 93.91091918945313 L 3 93.91091918945313 L 3 103.9109191894531 L 0 103.9109191894531 L 0 93.91091918945313 Z M 0 73.91092681884766 L 3 73.91092681884766 L 3 83.91091918945313 L 0 83.91091918945313 L 0 73.91092681884766 Z M 0 53.91092681884766 L 3 53.91092681884766 L 3 63.91092681884766 L 0 63.91092681884766 L 0 53.91092681884766 Z M 0 33.91092681884766 L 3 33.91092681884766 L 3 43.91092681884766 L 0 43.91092681884766 L 0 33.91092681884766 Z M 0 13.91091918945313 L 3 13.91091918945313 L 3 23.91092681884766 L 0 23.91092681884766 L 0 13.91091918945313 Z M 0 -1.52587890625e-05 L 10 -1.52587890625e-05 L 10 2.999984741210938 L 3 2.999984741210938 L 3 3.910919189453125 L 0 3.910919189453125 L 0 -1.52587890625e-05 Z"/></g><path class="b" d="M4750,296.451s-1.184-19.541,19.542-19.541H4824.7s11.124-.364,11.709,19.541" transform="translate(-4749.375 -276.909)"/></g><g transform="translate(451.997 347.731)"><g class="c" transform="translate(0 19.047)"><path class="e" d="M 238.5029296875 140.4525146484375 L 1.499996066093445 140.4525146484375 L 1.499996066093445 1.500007271766663 L 45.25515365600586 1.500007271766663 L 238.5029296875 1.500007271766663 L 238.5029296875 140.4525146484375 Z"/><path class="f" d="M 3 2.999984741210938 L 3 138.9525299072266 L 237.0029296875 138.9525299072266 L 237.0029296875 2.999984741210938 L 45.25515747070313 2.999984741210938 L 3 2.999984741210938 M 0 -1.52587890625e-05 L 45.25515747070313 -1.52587890625e-05 L 240.0029296875 -1.52587890625e-05 L 240.0029296875 141.9525299072266 L 0 141.9525299072266 L 0 -1.52587890625e-05 Z"/></g><path class="d" d="M4750,296.451s-1.184-19.541,19.542-19.541H4824.7s11.124-.364,11.709,19.541" transform="translate(-4749.375 -276.909)"/></g></g></svg>