<svg xmlns="http://www.w3.org/2000/svg" width="73.535" height="65.754" viewBox="0 0 73.535 65.754"><defs><style>.a{fill:#fff;}</style></defs><path class="a" d="M35.792,19.312,12.256,41.6V65.659A2.212,2.212,0,0,0,14.3,68.008L28.6,67.965a2.214,2.214,0,0,0,2.032-2.349V51.567a2.212,2.212,0,0,1,2.042-2.349h8.17a2.212,2.212,0,0,1,2.042,2.349V65.606a2.54,2.54,0,0,0,.6,1.665,1.918,1.918,0,0,0,1.447.69l14.3.045a2.212,2.212,0,0,0,2.042-2.349V41.586L37.745,19.312A1.4,1.4,0,0,0,35.792,19.312Zm37.177,15.15L62.3,24.347V4.015a1.659,1.659,0,0,0-1.532-1.761H53.616a1.659,1.659,0,0,0-1.532,1.761V14.673L40.655,3.861a5.524,5.524,0,0,0-7.787,0L.555,34.462a1.948,1.948,0,0,0-.2,2.481l3.255,4.55a1.485,1.485,0,0,0,1.036.634,1.4,1.4,0,0,0,1.122-.4L35.792,13.294a1.4,1.4,0,0,1,1.953,0L67.773,41.732a1.4,1.4,0,0,0,2.157-.235l3.255-4.55a1.947,1.947,0,0,0,.341-1.294,1.85,1.85,0,0,0-.558-1.191Z" transform="translate(0.001 -2.254)"/></svg>