<svg xmlns="http://www.w3.org/2000/svg" width="74.699" height="65.754" viewBox="0 0 74.699 65.754"><defs><style>.a{fill:#fff;}</style></defs><path class="a" d="M74.7,3.082V19.519a3.119,3.119,0,0,1-5.313,2.18l-4.631-4.586L33.173,48.387a3.134,3.134,0,0,1-4.4,0l-2.934-2.906a3.061,3.061,0,0,1,0-4.359L57.419,9.847l-4.63-4.585A3.081,3.081,0,0,1,54.99,0h16.6A3.1,3.1,0,0,1,74.7,3.082ZM52.786,34.777l-2.075,2.055a3.067,3.067,0,0,0-.912,2.18V57.535H8.3v-41.1H42.537a3.128,3.128,0,0,0,2.2-.9l2.075-2.055a3.079,3.079,0,0,0-2.2-5.262H6.225A6.2,6.2,0,0,0,0,14.384V59.59a6.2,6.2,0,0,0,6.225,6.164H51.874A6.2,6.2,0,0,0,58.1,59.59V36.956A3.116,3.116,0,0,0,52.786,34.777Z"/></svg>