<svg xmlns="http://www.w3.org/2000/svg" width="98.285" height="65.754" viewBox="0 0 98.285 65.754"><defs><style>.a{fill:#fff;}</style></defs><path class="a" d="M97.721,43.557,85.363,64.817a10.913,10.913,0,0,1-9.433,5.437H7.683a4.11,4.11,0,0,1-3.537-6.18L16.5,42.814a10.913,10.913,0,0,1,9.433-5.437H94.184a4.11,4.11,0,0,1,3.537,6.18ZM25.936,31.9H81.9V23.678a8.2,8.2,0,0,0-8.19-8.219h-27.3L35.492,4.5H8.19A8.2,8.2,0,0,0,0,12.719V60.33L11.787,40.053A16.426,16.426,0,0,1,25.936,31.9Z" transform="translate(0 -4.5)"/></svg>