<svg xmlns="http://www.w3.org/2000/svg" width="508.357" height="288.971" viewBox="0 0 508.357 288.971"><defs><style>.a,.m{fill:none;}.a{stroke:#fff;}.b,.c,.g{fill:#fff;}.b{font-size:12px;font-family:SimSun;}.c,.d{font-size:13px;font-family:Consolas;}.d{fill:#e373fa;}.e{fill:#30e2dd;}.f{fill:#fd3535;}.h{fill:#f2b438;}.i{fill:#82f864;}.j{fill:#ff0a0a;}.k{fill:#fff707;}.l{fill:#02ff61;}.m{stroke:#000;stroke-linecap:round;}</style></defs><g transform="translate(0.5 0.5)"><path class="a" d="M643.306,79.226V367.2h507.357V79.226Z" transform="translate(-643.306 -79.226)"/><path class="a" d="M643.306,107.218h507.357" transform="translate(-643.306 -85.47)"/><path class="a" d="M676.039,107.218V373.441" transform="translate(-651.184 -85.47)"/><text class="b" transform="translate(5.21 15.145)"><tspan x="0" y="0">links.html</tspan></text><text class="c" transform="translate(5.21 39.145)"><tspan x="0" y="0">1</tspan><tspan x="0" y="15">2</tspan><tspan x="0" y="30">3</tspan><tspan x="0" y="45">4</tspan><tspan x="0" y="60">5</tspan><tspan x="0" y="75">6</tspan><tspan x="0" y="90">7</tspan><tspan x="0" y="105">8</tspan><tspan x="0" y="120">9</tspan><tspan x="0" y="135">10</tspan><tspan x="0" y="150">11</tspan><tspan x="0" y="165">12</tspan><tspan x="0" y="180">13</tspan><tspan x="0" y="195">14</tspan><tspan x="0" y="210">15</tspan><tspan x="0" y="225">16</tspan><tspan x="0" y="240">17</tspan></text><text class="d" transform="translate(33.21 38.145)"><tspan x="0" y="0">&lt;!DOCTYPE html&gt;</tspan><tspan class="e"><tspan x="0" y="15">&lt;</tspan><tspan class="f" y="15">html</tspan><tspan y="15">&gt;</tspan></tspan><tspan x="0" y="30" xml:space="preserve">    </tspan><tspan class="e" y="30">&lt;</tspan><tspan class="f" y="30">head</tspan><tspan class="e" y="30">&gt;</tspan><tspan x="0" y="45" xml:space="preserve">        </tspan><tspan class="e" y="45">&lt;</tspan><tspan class="f" y="45">title</tspan><tspan class="e" y="45">&gt;</tspan><tspan class="g" y="45">Adi&apos;s website</tspan><tspan class="e" y="45">&lt;/</tspan><tspan class="f" y="45">title</tspan><tspan y="45">&gt;</tspan><tspan x="0" y="60" xml:space="preserve">        </tspan><tspan class="e" y="60">&lt;</tspan><tspan class="f" y="60">link </tspan><tspan class="h" y="60">rel</tspan><tspan class="e" y="60">=&quot;</tspan><tspan class="i" y="60">stylesheet</tspan><tspan class="e" y="60">&quot; </tspan><tspan class="h" y="60">type</tspan><tspan class="e" y="60">=&quot;</tspan><tspan class="i" y="60">text/css</tspan><tspan class="e" y="60">&quot; </tspan><tspan class="h" y="60">href</tspan><tspan class="e" y="60">=&quot;</tspan><tspan class="i" y="60">style.css</tspan><tspan class="e" y="60">&quot;&gt;</tspan><tspan x="0" y="75" xml:space="preserve">    </tspan><tspan class="e" y="75">&lt;</tspan><tspan class="f" y="75">head</tspan><tspan class="e" y="75">&gt;</tspan><tspan x="0" y="90" xml:space="preserve">    </tspan><tspan class="e" y="90">&lt;</tspan><tspan class="f" y="90">body</tspan><tspan class="e" y="90">&gt;</tspan><tspan x="0" y="105" xml:space="preserve">        </tspan><tspan class="e" y="105">&lt;</tspan><tspan class="f" y="105">section </tspan><tspan class="h" y="105">id</tspan><tspan class="e" y="105">=&quot;</tspan><tspan class="i" y="105">links</tspan><tspan class="e" y="105">&quot;&gt;</tspan><tspan x="0" y="120" xml:space="preserve">                </tspan><tspan class="e" y="120">&lt;</tspan><tspan class="f" y="120">ul</tspan><tspan class="e" y="120">&gt;</tspan><tspan x="0" y="135" xml:space="preserve">                    </tspan><tspan class="e" y="135">&lt;</tspan><tspan class="f" y="135">li</tspan><tspan class="e" y="135">&gt;&lt;</tspan><tspan y="135">a </tspan><tspan class="h" y="135">href</tspan><tspan class="e" y="135">=&quot;</tspan><tspan class="g" y="135">&quot;</tspan><tspan class="e" y="135">&gt;</tspan><tspan class="g" y="135">LinkedIn</tspan><tspan class="e" y="135">&lt;/</tspan><tspan class="f" y="135">a</tspan><tspan class="e" y="135">&gt;&lt;/</tspan><tspan class="f" y="135">li</tspan><tspan class="e" y="135">&gt;</tspan><tspan x="0" y="150" xml:space="preserve">                    &lt;li&gt;&lt;a </tspan><tspan class="h" y="150">href</tspan><tspan class="e" y="150">=&quot;</tspan><tspan class="g" y="150">&quot;</tspan><tspan class="e" y="150">&gt;</tspan><tspan class="g" y="150">GitHub</tspan><tspan class="e" y="150">&lt;/</tspan><tspan class="f" y="150">a</tspan><tspan class="e" y="150">&gt;&lt;/</tspan><tspan class="f" y="150">li</tspan><tspan class="e" y="150">&gt;</tspan><tspan x="0" y="165" xml:space="preserve">                    &lt;li&gt;&lt;a </tspan><tspan class="h" y="165">href</tspan><tspan class="e" y="165">=&quot;</tspan><tspan class="g" y="165">&quot;</tspan><tspan class="e" y="165">&gt;</tspan><tspan class="g" y="165">Contact</tspan><tspan class="e" y="165">&lt;/</tspan><tspan class="f" y="165">a</tspan><tspan class="e" y="165">&gt;&lt;/</tspan><tspan class="f" y="165">li</tspan><tspan class="e" y="165">&gt;</tspan><tspan x="0" y="180" xml:space="preserve">                </tspan><tspan class="e" y="180">&lt;/</tspan><tspan class="f" y="180">ul</tspan><tspan class="e" y="180">&gt;</tspan><tspan x="0" y="195" xml:space="preserve">        </tspan><tspan class="e" y="195">&lt;/</tspan><tspan class="f" y="195">section</tspan><tspan class="e" y="195">&gt;</tspan><tspan x="0" y="210" xml:space="preserve">    </tspan><tspan class="e" y="210">&lt;/</tspan><tspan y="210">body</tspan><tspan class="e" y="210">&gt;</tspan><tspan class="e"><tspan x="0" y="225">&lt;/</tspan><tspan class="f" y="225">html</tspan><tspan y="225">&gt;</tspan></tspan></text><g transform="translate(-955.79 -694.355)"><circle class="j" cx="7.5" cy="7.5" r="7.5" transform="translate(1444 697)"/><ellipse class="k" cx="8" cy="7.5" rx="8" ry="7.5" transform="translate(1425 697)"/><ellipse class="l" cx="8" cy="7.5" rx="8" ry="7.5" transform="translate(1406 697)"/><path class="m" d="M0,0,5.6,5.6" transform="translate(1413.962 700.705) rotate(45)"/><path class="m" d="M0,0,5.6,5.6" transform="translate(1454.261 707.605) rotate(-180)"/><path class="m" d="M5.6,0,0,5.6" transform="translate(1413.948 700.691) rotate(45)"/><path class="m" d="M5.6,0,0,5.6" transform="translate(1454.281 707.604) rotate(-180)"/><path class="m" d="M5.34,0,0,5.34" transform="translate(1432.866 700.884) rotate(45)"/></g></g></svg>