<svg xmlns="http://www.w3.org/2000/svg" width="508.357" height="288.971" viewBox="0 0 508.357 288.971"><defs><style>.a{fill:#fbff92;opacity:0.3;}.b,.d,.e{fill:#fff;}.c,.n{fill:none;}.c{stroke:#fff;}.d{font-size:12px;font-family:SimSun;}.e,.f{font-size:13px;font-family:Consolas;}.f{fill:#e373fa;}.g{fill:#30e2dd;}.h{fill:#fd3535;}.i{fill:#f2b438;}.j{fill:#82f864;}.k{fill:#ff0a0a;}.l{fill:#fff707;}.m{fill:#02ff61;}.n{stroke:#000;stroke-linecap:round;}</style></defs><g transform="translate(-1120.5 -349.355)"><g transform="translate(1063 301)"><g transform="translate(83 300)"><rect class="a" width="482" height="17"/></g><path class="b" d="M8.5,0,17,16H0Z" transform="translate(79 300) rotate(90)"/></g><g transform="translate(1121 349.855)"><path class="c" d="M643.306,79.226V367.2h507.357V79.226Z" transform="translate(-643.306 -79.226)"/><path class="c" d="M643.306,107.218h507.357" transform="translate(-643.306 -85.47)"/><path class="c" d="M676.039,107.218V373.441" transform="translate(-651.184 -85.47)"/><text class="d" transform="translate(5.21 15.145)"><tspan x="0" y="0">links.html</tspan></text><text class="e" transform="translate(5.21 39.145)"><tspan x="0" y="0">1</tspan><tspan x="0" y="15">2</tspan><tspan x="0" y="30">3</tspan><tspan x="0" y="45">4</tspan><tspan x="0" y="60">5</tspan><tspan x="0" y="75">6</tspan><tspan x="0" y="90">7</tspan><tspan x="0" y="105">8</tspan><tspan x="0" y="120">9</tspan><tspan x="0" y="135">10</tspan><tspan x="0" y="150">11</tspan><tspan x="0" y="165">12</tspan><tspan x="0" y="180">13</tspan><tspan x="0" y="195">14</tspan><tspan x="0" y="210">15</tspan><tspan x="0" y="225"></tspan><tspan x="0" y="240">17</tspan></text><text class="f" transform="translate(33.21 38.145)"><tspan x="0" y="0">&lt;!DOCTYPE html&gt;</tspan><tspan class="g"><tspan x="0" y="15">&lt;</tspan><tspan class="h" y="15">html</tspan><tspan y="15">&gt;</tspan></tspan><tspan x="0" y="30" xml:space="preserve">    </tspan><tspan class="g" y="30">&lt;</tspan><tspan class="h" y="30">head</tspan><tspan class="g" y="30">&gt;</tspan><tspan x="0" y="45" xml:space="preserve">        </tspan><tspan class="g" y="45">&lt;</tspan><tspan class="h" y="45">title</tspan><tspan class="g" y="45">&gt;</tspan><tspan class="b" y="45">Adi&apos;s website</tspan><tspan class="g" y="45">&lt;/</tspan><tspan class="h" y="45">title</tspan><tspan y="45">&gt;</tspan><tspan x="0" y="60" xml:space="preserve">        </tspan><tspan class="g" y="60">&lt;</tspan><tspan class="h" y="60">link </tspan><tspan class="i" y="60">rel</tspan><tspan class="g" y="60">=&quot;</tspan><tspan class="j" y="60">stylesheet</tspan><tspan class="g" y="60">&quot; </tspan><tspan class="i" y="60">type</tspan><tspan class="g" y="60">=&quot;</tspan><tspan class="j" y="60">text/css</tspan><tspan class="g" y="60">&quot; </tspan><tspan class="i" y="60">href</tspan><tspan class="g" y="60">=&quot;</tspan><tspan class="j" y="60">style.css</tspan><tspan class="g" y="60">&quot;&gt;</tspan><tspan x="0" y="75" xml:space="preserve">    </tspan><tspan class="g" y="75">&lt;</tspan><tspan class="h" y="75">head</tspan><tspan class="g" y="75">&gt;</tspan><tspan x="0" y="90" xml:space="preserve">    </tspan><tspan class="g" y="90">&lt;</tspan><tspan class="h" y="90">body</tspan><tspan class="g" y="90">&gt;</tspan><tspan x="0" y="105" xml:space="preserve">        </tspan><tspan class="g" y="105">&lt;</tspan><tspan class="h" y="105">section </tspan><tspan class="i" y="105">id</tspan><tspan class="g" y="105">=&quot;</tspan><tspan class="j" y="105">links</tspan><tspan class="g" y="105">&quot;&gt;</tspan><tspan x="0" y="120" xml:space="preserve">                </tspan><tspan class="g" y="120">&lt;</tspan><tspan class="h" y="120">ul</tspan><tspan class="g" y="120">&gt;</tspan><tspan x="0" y="135" xml:space="preserve">                    </tspan><tspan class="g" y="135">&lt;</tspan><tspan class="h" y="135">li</tspan><tspan class="g" y="135">&gt;&lt;</tspan><tspan y="135">a </tspan><tspan class="i" y="135">href</tspan><tspan class="g" y="135">=&quot;</tspan><tspan class="b" y="135">&quot;</tspan><tspan class="g" y="135">&gt;</tspan><tspan class="b" y="135">LinkedIn</tspan><tspan class="g" y="135">&lt;/</tspan><tspan class="h" y="135">a</tspan><tspan class="g" y="135">&gt;&lt;/</tspan><tspan class="h" y="135">li</tspan><tspan class="g" y="135">&gt;</tspan><tspan x="0" y="150" xml:space="preserve">                    &lt;li&gt;&lt;a </tspan><tspan class="i" y="150">href</tspan><tspan class="g" y="150">=&quot;</tspan><tspan class="b" y="150">&quot;</tspan><tspan class="g" y="150">&gt;</tspan><tspan class="b" y="150">GitHub</tspan><tspan class="g" y="150">&lt;/</tspan><tspan class="h" y="150">a</tspan><tspan class="g" y="150">&gt;&lt;/</tspan><tspan class="h" y="150">li</tspan><tspan class="g" y="150">&gt;</tspan><tspan x="0" y="165" xml:space="preserve">                    &lt;li&gt;&lt;a </tspan><tspan class="i" y="165">href</tspan><tspan class="g" y="165">=&quot;</tspan><tspan class="b" y="165">&quot;</tspan><tspan class="g" y="165">&gt;</tspan><tspan class="b" y="165">Contact</tspan><tspan class="g" y="165">&lt;/</tspan><tspan class="h" y="165">a</tspan><tspan class="g" y="165">&gt;&lt;/</tspan><tspan class="h" y="165">li</tspan><tspan class="g" y="165">&gt;</tspan><tspan x="0" y="180" xml:space="preserve">                </tspan><tspan class="g" y="180">&lt;/</tspan><tspan class="h" y="180">ul</tspan><tspan class="g" y="180">&gt;</tspan><tspan x="0" y="195" xml:space="preserve">        </tspan><tspan class="g" y="195">&lt;/</tspan><tspan class="h" y="195">section</tspan><tspan class="g" y="195">&gt;</tspan><tspan x="0" y="210" xml:space="preserve">    </tspan><tspan class="g" y="210">&lt;/</tspan><tspan y="210">body</tspan><tspan class="g" y="210">&gt;</tspan><tspan class="g"><tspan x="0" y="225">&lt;/</tspan><tspan class="h" y="225">html</tspan><tspan y="225">&gt;</tspan></tspan></text><g transform="translate(-955.79 -694.355)"><circle class="k" cx="7.5" cy="7.5" r="7.5" transform="translate(1444 697)"/><ellipse class="l" cx="8" cy="7.5" rx="8" ry="7.5" transform="translate(1425 697)"/><ellipse class="m" cx="8" cy="7.5" rx="8" ry="7.5" transform="translate(1406 697)"/><path class="n" d="M0,0,5.6,5.6" transform="translate(1413.962 700.705) rotate(45)"/><path class="n" d="M0,0,5.6,5.6" transform="translate(1454.261 707.605) rotate(-180)"/><path class="n" d="M5.6,0,0,5.6" transform="translate(1413.948 700.691) rotate(45)"/><path class="n" d="M5.6,0,0,5.6" transform="translate(1454.281 707.604) rotate(-180)"/><path class="n" d="M5.34,0,0,5.34" transform="translate(1432.866 700.884) rotate(45)"/></g></g></g></svg>