<svg xmlns="http://www.w3.org/2000/svg" width="508.357" height="288.971" viewBox="0 0 508.357 288.971"><g transform="translate(-1120.5 -20.355)"><g transform="translate(1063 -178)"><g transform="translate(83 300)"><rect width="482" height="17" fill="#fbff92" opacity="0.3"/></g><path d="M8.5,0,17,16H0Z" transform="translate(79 300) rotate(90)" fill="#fff"/></g><g transform="translate(1121 20.855)"><path d="M643.306,79.226V367.2h507.357V79.226Z" transform="translate(-643.306 -79.226)" fill="none" stroke="#fff" stroke-width="1"/><path d="M643.306,107.218h507.357" transform="translate(-643.306 -85.47)" fill="none" stroke="#fff" stroke-width="1"/><path d="M676.039,107.218V373.441" transform="translate(-651.184 -85.47)" fill="none" stroke="#fff" stroke-width="1"/><text transform="translate(5.21 15.145)" fill="#fff" font-size="12" font-family="SimSun"><tspan x="0" y="0">links.html</tspan></text><text transform="translate(5.21 39.145)" fill="#fff" font-size="13" font-family="Consolas"><tspan x="0" y="0">1</tspan><tspan x="0" y="15">2</tspan><tspan x="0" y="30">3</tspan><tspan x="0" y="45">4</tspan><tspan x="0" y="60">5</tspan><tspan x="0" y="75">6</tspan><tspan x="0" y="90">7</tspan><tspan x="0" y="105">8</tspan><tspan x="0" y="120">9</tspan><tspan x="0" y="135">10</tspan><tspan x="0" y="150">11</tspan><tspan x="0" y="165">12</tspan><tspan x="0" y="180">13</tspan><tspan x="0" y="195">14</tspan><tspan x="0" y="210">15</tspan><tspan x="0" y="225">16</tspan><tspan x="0" y="240">17</tspan></text><text transform="translate(33.21 38.145)" fill="#e373fa" font-size="13" font-family="Consolas"><tspan x="0" y="0">&lt;!DOCTYPE html&gt;</tspan><tspan fill="#30e2dd"><tspan x="0" y="15">&lt;</tspan><tspan y="15" fill="#fd3535">html</tspan><tspan y="15">&gt;</tspan></tspan><tspan x="0" y="30" xml:space="preserve">    </tspan><tspan y="30" fill="#30e2dd">&lt;</tspan><tspan y="30" fill="#fd3535">head</tspan><tspan y="30" fill="#30e2dd">&gt;</tspan><tspan x="0" y="45" xml:space="preserve">        </tspan><tspan y="45" fill="#30e2dd">&lt;</tspan><tspan y="45" fill="#fd3535">title</tspan><tspan y="45" fill="#30e2dd">&gt;</tspan><tspan y="45" fill="#fff">Adi&apos;s website</tspan><tspan y="45" fill="#30e2dd">&lt;/</tspan><tspan y="45" fill="#fd3535">title</tspan><tspan y="45">&gt;</tspan><tspan x="0" y="60" xml:space="preserve">        </tspan><tspan y="60" fill="#30e2dd">&lt;</tspan><tspan y="60" fill="#fd3535">link </tspan><tspan y="60" fill="#f2b438">rel</tspan><tspan y="60" fill="#30e2dd">=&quot;</tspan><tspan y="60" fill="#82f864">stylesheet</tspan><tspan y="60" fill="#30e2dd">&quot; </tspan><tspan y="60" fill="#f2b438">type</tspan><tspan y="60" fill="#30e2dd">=&quot;</tspan><tspan y="60" fill="#82f864">text/css</tspan><tspan y="60" fill="#30e2dd">&quot; </tspan><tspan y="60" fill="#f2b438">href</tspan><tspan y="60" fill="#30e2dd">=&quot;</tspan><tspan y="60" fill="#82f864">style.css</tspan><tspan y="60" fill="#30e2dd">&quot;&gt;</tspan><tspan x="0" y="75" xml:space="preserve">    </tspan><tspan y="75" fill="#30e2dd">&lt;</tspan><tspan y="75" fill="#fd3535">head</tspan><tspan y="75" fill="#30e2dd">&gt;</tspan><tspan x="0" y="90" xml:space="preserve">    </tspan><tspan y="90" fill="#30e2dd">&lt;</tspan><tspan y="90" fill="#fd3535">body</tspan><tspan y="90" fill="#30e2dd">&gt;</tspan><tspan x="0" y="105" xml:space="preserve">        </tspan><tspan y="105" fill="#30e2dd">&lt;</tspan><tspan y="105" fill="#fd3535">section </tspan><tspan y="105" fill="#f2b438">id</tspan><tspan y="105" fill="#30e2dd">=&quot;</tspan><tspan y="105" fill="#82f864">links</tspan><tspan y="105" fill="#30e2dd">&quot;&gt;</tspan><tspan x="0" y="120" xml:space="preserve">                </tspan><tspan y="120" fill="#30e2dd">&lt;</tspan><tspan y="120" fill="#fd3535">ul</tspan><tspan y="120" fill="#30e2dd">&gt;</tspan><tspan x="0" y="135" xml:space="preserve">                    </tspan><tspan y="135" fill="#30e2dd">&lt;</tspan><tspan y="135" fill="#fd3535">li</tspan><tspan y="135" fill="#30e2dd">&gt;&lt;</tspan><tspan y="135">a </tspan><tspan y="135" fill="#f2b438">href</tspan><tspan y="135" fill="#30e2dd">=&quot;</tspan><tspan y="135" fill="#fff">&quot;</tspan><tspan y="135" fill="#30e2dd">&gt;</tspan><tspan y="135" fill="#fff">LinkedIn</tspan><tspan y="135" fill="#30e2dd">&lt;/</tspan><tspan y="135" fill="#fd3535">a</tspan><tspan y="135" fill="#30e2dd">&gt;&lt;/</tspan><tspan y="135" fill="#fd3535">li</tspan><tspan y="135" fill="#30e2dd">&gt;</tspan><tspan x="0" y="150" xml:space="preserve">                    &lt;li&gt;&lt;a </tspan><tspan y="150" fill="#f2b438">href</tspan><tspan y="150" fill="#30e2dd">=&quot;</tspan><tspan y="150" fill="#fff">&quot;</tspan><tspan y="150" fill="#30e2dd">&gt;</tspan><tspan y="150" fill="#fff">GitHub</tspan><tspan y="150" fill="#30e2dd">&lt;/</tspan><tspan y="150" fill="#fd3535">a</tspan><tspan y="150" fill="#30e2dd">&gt;&lt;/</tspan><tspan y="150" fill="#fd3535">li</tspan><tspan y="150" fill="#30e2dd">&gt;</tspan><tspan x="0" y="165" xml:space="preserve">                    &lt;li&gt;&lt;a </tspan><tspan y="165" fill="#f2b438">href</tspan><tspan y="165" fill="#30e2dd">=&quot;</tspan><tspan y="165" fill="#fff">&quot;</tspan><tspan y="165" fill="#30e2dd">&gt;</tspan><tspan y="165" fill="#fff">Contact</tspan><tspan y="165" fill="#30e2dd">&lt;/</tspan><tspan y="165" fill="#fd3535">a</tspan><tspan y="165" fill="#30e2dd">&gt;&lt;/</tspan><tspan y="165" fill="#fd3535">li</tspan><tspan y="165" fill="#30e2dd">&gt;</tspan><tspan x="0" y="180" xml:space="preserve">                </tspan><tspan y="180" fill="#30e2dd">&lt;/</tspan><tspan y="180" fill="#fd3535">ul</tspan><tspan y="180" fill="#30e2dd">&gt;</tspan><tspan x="0" y="195" xml:space="preserve">        </tspan><tspan y="195" fill="#30e2dd">&lt;/</tspan><tspan y="195" fill="#fd3535">section</tspan><tspan y="195" fill="#30e2dd">&gt;</tspan><tspan x="0" y="210" xml:space="preserve">    </tspan><tspan y="210" fill="#30e2dd">&lt;/</tspan><tspan y="210">body</tspan><tspan y="210" fill="#30e2dd">&gt;</tspan><tspan fill="#30e2dd"><tspan x="0" y="225">&lt;/</tspan><tspan y="225" fill="#fd3535">html</tspan><tspan y="225">&gt;</tspan></tspan></text><g transform="translate(-955.79 -694.355)"><circle cx="7.5" cy="7.5" r="7.5" transform="translate(1444 697)" fill="#ff0a0a"/><ellipse cx="8" cy="7.5" rx="8" ry="7.5" transform="translate(1425 697)" fill="#fff707"/><ellipse cx="8" cy="7.5" rx="8" ry="7.5" transform="translate(1406 697)" fill="#02ff61"/><path d="M0,0,5.6,5.6" transform="translate(1413.962 700.705) rotate(45)" fill="none" stroke="#000" stroke-linecap="round" stroke-width="1"/><path d="M0,0,5.6,5.6" transform="translate(1454.261 707.605) rotate(-180)" fill="none" stroke="#000" stroke-linecap="round" stroke-width="1"/><path d="M5.6,0,0,5.6" transform="translate(1413.948 700.691) rotate(45)" fill="none" stroke="#000" stroke-linecap="round" stroke-width="1"/><path d="M5.6,0,0,5.6" transform="translate(1454.281 707.604) rotate(-180)" fill="none" stroke="#000" stroke-linecap="round" stroke-width="1"/><path d="M5.34,0,0,5.34" transform="translate(1432.866 700.884) rotate(45)" fill="none" stroke="#000" stroke-linecap="round" stroke-width="1"/></g></g></g></svg>