<svg xmlns="http://www.w3.org/2000/svg" width="101.846" height="101.846" viewBox="0 0 101.846 101.846"><defs><style>.a{fill:#fff;}</style></defs><path class="a" d="M101.846,9.548V66.836A9.551,9.551,0,0,1,92.3,76.385H82.75V35.01A15.935,15.935,0,0,0,66.836,19.1H25.462V9.548A9.551,9.551,0,0,1,35.01,0H92.3A9.551,9.551,0,0,1,101.846,9.548ZM76.385,35.01V92.3a9.551,9.551,0,0,1-9.548,9.548H9.548A9.551,9.551,0,0,1,0,92.3V35.01a9.551,9.551,0,0,1,9.548-9.548H66.836A9.551,9.551,0,0,1,76.385,35.01Zm-13.526,5.57a2.394,2.394,0,0,0-2.387-2.387H15.118a2.394,2.394,0,0,0-2.387,2.387V50.923H62.858Z"/></svg>