<svg xmlns="http://www.w3.org/2000/svg" width="94.713" height="92.347" viewBox="0 0 94.713 92.347"><defs><style>.a{fill:#fff;}</style></defs><path class="a" d="M31.679,74.92c0,.382-.439.687-.993.687-.63.057-1.069-.248-1.069-.687,0-.382.439-.687.993-.687C31.183,74.175,31.679,74.481,31.679,74.92Zm-5.939-.859c-.134.382.248.821.821.936a.9.9,0,0,0,1.184-.382c.115-.382-.248-.821-.821-.993A.98.98,0,0,0,25.741,74.061Zm8.44-.325c-.554.134-.936.5-.878.936.057.382.554.63,1.127.5.554-.134.936-.5.878-.878C35.25,73.927,34.735,73.679,34.181,73.736ZM46.746.563C20.26.563,0,20.67,0,47.155A47.874,47.874,0,0,0,32.367,92.831c2.444.439,3.3-1.069,3.3-2.311,0-1.184-.057-7.715-.057-11.725,0,0-13.367,2.864-16.174-5.69,0,0-2.177-5.557-5.309-6.989,0,0-4.373-3,.306-2.941A10.08,10.08,0,0,1,21.807,68.1c4.182,7.371,11.19,5.251,13.921,3.991a10.613,10.613,0,0,1,3.055-6.435c-10.674-1.184-21.444-2.731-21.444-21.1,0-5.251,1.451-7.886,4.507-11.247a18.042,18.042,0,0,1,.5-12.966C26.333,19.1,35.517,25.5,35.517,25.5a45.111,45.111,0,0,1,23.984,0s9.185-6.416,13.176-5.156a18.033,18.033,0,0,1,.5,12.966c3.055,3.38,4.927,6.015,4.927,11.247,0,18.427-11.247,19.9-21.922,21.1,1.757,1.509,3.246,4.373,3.246,8.86,0,6.435-.057,14.4-.057,15.964,0,1.241.878,2.75,3.3,2.311,19.1-6.34,32.042-24.461,32.042-45.638C94.713,20.67,73.231.563,46.746.563ZM18.561,66.423c-.248.191-.191.63.134.993.306.306.745.439.993.191.248-.191.191-.63-.134-.993C19.248,66.308,18.809,66.174,18.561,66.423ZM16.5,64.876c-.134.248.057.554.439.745a.568.568,0,0,0,.821-.134c.134-.248-.057-.554-.439-.745C16.938,64.628,16.632,64.685,16.5,64.876Zm6.187,6.8c-.306.248-.191.821.248,1.184.439.439.993.5,1.241.191.248-.248.134-.821-.248-1.184C23.506,71.425,22.934,71.368,22.685,71.674Zm-2.177-2.807c-.306.191-.306.687,0,1.127s.821.63,1.069.439a.871.871,0,0,0,0-1.184C21.31,68.809,20.814,68.618,20.508,68.867Z" transform="translate(0 -0.563)"/></svg>