<svg xmlns="http://www.w3.org/2000/svg" width="313" height="186" viewBox="0 0 313 186"><defs><style>.a,.e{fill:none;}.a{stroke:#fff;}.b{fill:#ff0a0a;}.c{fill:#fff707;}.d{fill:#02ff61;}.e{stroke:#000;stroke-linecap:round;}.f,.g,.i{fill:#fff;}.f{font-size:12px;font-family:SimSun;}.g,.h{font-size:13px;font-family:Consolas;}.h,.l{fill:#e373fa;}.j{fill:#4094f3;}.k{fill:#30e2dd;}.m{fill:#f2b438;}.n{fill:#82f864;}</style></defs><g transform="translate(-70.22 -819.533)"><path class="a" d="M643.306,79.226v185h312v-185Z" transform="translate(-572.586 740.807)"/><path class="a" d="M643.306,107.218H955.058" transform="translate(-572.586 734.564)"/><path class="a" d="M676.039,107.218V270.395" transform="translate(-580.464 734.564)"/><circle class="b" cx="7.5" cy="7.5" r="7.5" transform="translate(363 823)"/><ellipse class="c" cx="8" cy="7.5" rx="8" ry="7.5" transform="translate(344 823)"/><ellipse class="d" cx="8" cy="7.5" rx="8" ry="7.5" transform="translate(325 823)"/><path class="e" d="M0,0,5.6,5.6" transform="translate(332.962 826.705) rotate(45)"/><path class="e" d="M0,0,5.6,5.6" transform="translate(373.261 833.605) rotate(-180)"/><path class="e" d="M5.6,0,0,5.6" transform="translate(332.948 826.691) rotate(45)"/><path class="e" d="M5.6,0,0,5.6" transform="translate(373.281 833.604) rotate(-180)"/><path class="e" d="M5.34,0,0,5.34" transform="translate(351.866 826.884) rotate(45)"/><text class="f" transform="translate(76 835)"><tspan x="0" y="0">home.py</tspan></text><text class="g" transform="translate(76 859)"><tspan x="0" y="0">1</tspan><tspan x="0" y="15">2</tspan><tspan x="0" y="30">3</tspan><tspan x="0" y="45">4</tspan><tspan x="0" y="60">5</tspan><tspan x="0" y="75">6</tspan><tspan x="0" y="90">7</tspan><tspan x="0" y="105">8</tspan><tspan x="0" y="120">9</tspan><tspan x="0" y="135">10</tspan></text><text class="h" transform="translate(104 858)"><tspan x="0" y="0">def</tspan><tspan class="i" y="0"> </tspan><tspan class="j" y="0">open_home_page</tspan><tspan class="i" y="0">(</tspan><tspan class="k" y="0">animations</tspan><tspan class="i" y="0">, </tspan><tspan class="k" y="0">text</tspan><tspan class="i" y="0">):</tspan><tspan class="i"><tspan x="0" y="15" xml:space="preserve">    </tspan><tspan class="j" y="15">print</tspan><tspan y="15">(text)</tspan><tspan x="0" y="30" xml:space="preserve">    </tspan><tspan class="j" y="30">start_animations</tspan><tspan y="30">(animations)</tspan><tspan x="0" y="45"></tspan></tspan><tspan x="0" y="60">def</tspan><tspan class="i" y="60"> </tspan><tspan class="j" y="60">start_animations</tspan><tspan class="i" y="60">(</tspan><tspan class="k" y="60">animations</tspan><tspan class="i" y="60">):</tspan><tspan class="i"><tspan x="0" y="75" xml:space="preserve">    </tspan><tspan class="l" y="75">if </tspan><tspan y="75">animations.</tspan><tspan class="m" y="75">are_awesome</tspan><tspan y="75">: </tspan><tspan x="0" y="90" xml:space="preserve">        </tspan><tspan class="j" y="90">print</tspan><tspan y="90">(</tspan><tspan class="n" y="90">&quot;Good to go!&quot;</tspan><tspan y="90">)</tspan><tspan x="0" y="105" xml:space="preserve">    </tspan><tspan class="l" y="105">for </tspan><tspan y="105">animation </tspan><tspan class="l" y="105">in </tspan><tspan y="105">animations: </tspan><tspan x="0" y="120" xml:space="preserve">        animation.</tspan><tspan class="j" y="120">run</tspan><tspan y="120">()</tspan></tspan></text></g></svg>