<svg xmlns="http://www.w3.org/2000/svg" width="92.349" height="92.347" viewBox="0 0 92.349 92.347"><defs><style>.a{fill:#fff;}</style></defs><path class="a" d="M20.671,92.347H1.525V30.692H20.671ZM11.088,22.282A11.141,11.141,0,1,1,22.176,11.089,11.182,11.182,0,0,1,11.088,22.282Zm81.24,70.066h-19.1V62.334c0-7.153-.144-16.326-9.954-16.326-9.954,0-11.48,7.771-11.48,15.811V92.347H32.664V30.692H51.027V39.1h.268c2.556-4.844,8.8-9.956,18.115-9.956,19.377,0,22.939,12.76,22.939,29.333V92.347Z" transform="translate(0 -0.001)"/></svg>