<svg xmlns="http://www.w3.org/2000/svg" width="116.738" height="103.767" viewBox="0 0 116.738 103.767"><defs><style>.a{fill:#fff;}</style></defs><path class="a" d="M32.427,90.8c-5.188,0-10.377-4.54-12.971-6.485C6.485,75.231,2.594,71.989,0,70.043V97.282a6.486,6.486,0,0,0,6.485,6.485H58.369a6.486,6.486,0,0,0,6.485-6.485V70.043C62.26,71.989,58.369,75.231,45.4,84.311,42.8,86.257,37.616,90.8,32.427,90.8ZM58.369,51.884H6.485A6.486,6.486,0,0,0,0,58.369v3.243C5.188,65.5,4.54,65.5,23.348,79.123c1.946,1.3,5.837,5.188,9.08,5.188s7.134-3.891,9.08-4.54C60.315,66.152,59.666,66.152,64.855,62.26V58.369A6.486,6.486,0,0,0,58.369,51.884Zm51.884-19.456H45.4a6.486,6.486,0,0,0-6.485,6.485V45.4H58.369A12.99,12.99,0,0,1,71.281,57.117l.059-.045V84.311h38.913a6.486,6.486,0,0,0,6.485-6.485V38.913A6.486,6.486,0,0,0,110.253,32.427Zm-6.485,25.942H90.8V45.4h12.971ZM32.427,38.913A12.986,12.986,0,0,1,45.4,25.942H90.8V6.485A6.486,6.486,0,0,0,84.311,0H19.456a6.486,6.486,0,0,0-6.485,6.485V45.4H32.427Z"/></svg>