<svg xmlns="http://www.w3.org/2000/svg" width="788.035" height="265.005" viewBox="0 0 788.035 265.005"><defs><style>.a,.e{fill:#142239;}.a,.d{stroke-dasharray:10;}.b,.c{fill:#fff;font-family:SimSun;}.b{font-size:17px;}.c{font-size:16px;}.d,.f{fill:none;stroke:#f6ff00;stroke-width:2px;}.g,.h{stroke:none;}.h{fill:#f6ff00;}</style></defs><g transform="translate(-211.965 -346.726)"><g transform="translate(1)"><g class="a" transform="translate(211 379)"><path class="g" d="M0,0H394V232.731H0Z"/><path class="h" d="M 0 1.52587890625e-05 L 10 1.52587890625e-05 L 10 3.000015258789063 L 0 3.000015258789063 L 0 1.52587890625e-05 Z M 20 1.52587890625e-05 L 30 1.52587890625e-05 L 30 3.000015258789063 L 20 3.000015258789063 L 20 1.52587890625e-05 Z M 40 1.52587890625e-05 L 50 1.52587890625e-05 L 50 3.000015258789063 L 40 3.000015258789063 L 40 1.52587890625e-05 Z M 60 1.52587890625e-05 L 70 1.52587890625e-05 L 70 3.000015258789063 L 60 3.000015258789063 L 60 1.52587890625e-05 Z M 80 1.52587890625e-05 L 90 1.52587890625e-05 L 90 3.000015258789063 L 80 3.000015258789063 L 80 1.52587890625e-05 Z M 100 1.52587890625e-05 L 110 1.52587890625e-05 L 110 3.000015258789063 L 100 3.000015258789063 L 100 1.52587890625e-05 Z M 120 1.52587890625e-05 L 130 1.52587890625e-05 L 130 3.000015258789063 L 120 3.000015258789063 L 120 1.52587890625e-05 Z M 140 1.52587890625e-05 L 150 1.52587890625e-05 L 150 3.000015258789063 L 140 3.000015258789063 L 140 1.52587890625e-05 Z M 160 1.52587890625e-05 L 170 1.52587890625e-05 L 170 3.000015258789063 L 160 3.000015258789063 L 160 1.52587890625e-05 Z M 180 1.52587890625e-05 L 190 1.52587890625e-05 L 190 3.000015258789063 L 180 3.000015258789063 L 180 1.52587890625e-05 Z M 200 1.52587890625e-05 L 210 1.52587890625e-05 L 210 3.000015258789063 L 200 3.000015258789063 L 200 1.52587890625e-05 Z M 220 1.52587890625e-05 L 230 1.52587890625e-05 L 230 3.000015258789063 L 220 3.000015258789063 L 220 1.52587890625e-05 Z M 240 1.52587890625e-05 L 250 1.52587890625e-05 L 250 3.000015258789063 L 240 3.000015258789063 L 240 1.52587890625e-05 Z M 260 1.52587890625e-05 L 270 1.52587890625e-05 L 270 3.000015258789063 L 260 3.000015258789063 L 260 1.52587890625e-05 Z M 280 1.52587890625e-05 L 290 1.52587890625e-05 L 290 3.000015258789063 L 280 3.000015258789063 L 280 1.52587890625e-05 Z M 300 1.52587890625e-05 L 310 1.52587890625e-05 L 310 3.000015258789063 L 300 3.000015258789063 L 300 1.52587890625e-05 Z M 320 1.52587890625e-05 L 330 1.52587890625e-05 L 330 3.000015258789063 L 320 3.000015258789063 L 320 1.52587890625e-05 Z M 340 1.52587890625e-05 L 350 1.52587890625e-05 L 350 3.000015258789063 L 340 3.000015258789063 L 340 1.52587890625e-05 Z M 360 1.52587890625e-05 L 370 1.52587890625e-05 L 370 3.000015258789063 L 360 3.000015258789063 L 360 1.52587890625e-05 Z M 380 1.52587890625e-05 L 390 1.52587890625e-05 L 390 3.000015258789063 L 380 3.000015258789063 L 380 1.52587890625e-05 Z M 391 6.000015258789063 L 394 6.000015258789063 C 394 6.000015258789063 394 16.00001525878906 394 16.00001525878906 L 391 16.00001525878906 L 391 6.000015258789063 Z M 391 26.00001525878906 L 394 26.00001525878906 C 394 26.00001525878906 394 36.00001525878906 394 36.00001525878906 L 391 36.00001525878906 L 391 26.00001525878906 Z M 391 46.00001525878906 L 394 46.00001525878906 C 394 46.00001525878906 394 56.00001525878906 394 56.00001525878906 L 391 56.00001525878906 L 391 46.00001525878906 Z M 391 66.00001525878906 L 394 66.00001525878906 C 394 66.00001525878906 394 76.00001525878906 394 76.00001525878906 L 391 76.00001525878906 L 391 66.00001525878906 Z M 391 86.00001525878906 L 394 86.00001525878906 C 394 86.00001525878906 394 96.00001525878906 394 96.00001525878906 L 391 96.00001525878906 L 391 86.00001525878906 Z M 391 106.0000152587891 L 394 106.0000152587891 C 394 106.0000152587891 394 116.0000152587891 394 116.0000152587891 L 391 116.0000152587891 L 391 106.0000152587891 Z M 391 126.0000152587891 L 394 126.0000152587891 C 394 126.0000152587891 394 136.0000152587891 394 136.0000152587891 L 391 136.0000152587891 L 391 126.0000152587891 Z M 391 146.0000152587891 L 394 146.0000152587891 C 394 146.0000152587891 394 156.0000152587891 394 156.0000152587891 L 391 156.0000152587891 L 391 146.0000152587891 Z M 391 166.0000152587891 L 394 166.0000152587891 C 394 166.0000152587891 394 176.0000152587891 394 176.0000152587891 L 391 176.0000152587891 L 391 166.0000152587891 Z M 391 186.0000152587891 L 394 186.0000152587891 C 394 186.0000152587891 394 196.0000152587891 394 196.0000152587891 L 391 196.0000152587891 L 391 186.0000152587891 Z M 391 206.0000152587891 L 394 206.0000152587891 C 394 206.0000152587891 394 216.0000152587891 394 216.0000152587891 L 391 216.0000152587891 L 391 206.0000152587891 Z M 391 226.0000152587891 L 394 226.0000152587891 C 394 226.0000152587891 394 232.7307586669922 394 232.7307586669922 L 391 232.7307586669922 L 391 232.7307586669922 L 391 232.7307586669922 L 391 232.7307586669922 L 391 232.7307586669922 C 390.8324584960938 232.7307586669922 390.7307434082031 232.7307586669922 390.7307434082031 232.7307586669922 L 390.7307434082031 229.7307586669922 L 391 229.7307586669922 L 391 226.0000152587891 Z M 370.7307434082031 229.7307586669922 L 380.7307434082031 229.7307586669922 L 380.7307434082031 232.7307586669922 C 380.7307434082031 232.7307586669922 370.7307434082031 232.7307586669922 370.7307434082031 232.7307586669922 L 370.7307434082031 229.7307586669922 Z M 350.7307434082031 229.7307586669922 L 360.7307434082031 229.7307586669922 L 360.7307434082031 232.7307586669922 C 360.7307434082031 232.7307586669922 350.7307434082031 232.7307586669922 350.7307434082031 232.7307586669922 L 350.7307434082031 229.7307586669922 Z M 330.7307434082031 229.7307586669922 L 340.7307434082031 229.7307586669922 L 340.7307434082031 232.7307586669922 C 340.7307434082031 232.7307586669922 330.7307434082031 232.7307586669922 330.7307434082031 232.7307586669922 L 330.7307434082031 229.7307586669922 Z M 310.7307434082031 229.7307586669922 L 320.7307434082031 229.7307586669922 L 320.7307434082031 232.7307586669922 C 320.7307434082031 232.7307586669922 310.7307434082031 232.7307586669922 310.7307434082031 232.7307586669922 L 310.7307434082031 229.7307586669922 Z M 290.7307434082031 229.7307586669922 L 300.7307434082031 229.7307586669922 L 300.7307434082031 232.7307586669922 C 300.7307434082031 232.7307586669922 290.7307434082031 232.7307586669922 290.7307434082031 232.7307586669922 L 290.7307434082031 229.7307586669922 Z M 270.7307434082031 229.7307586669922 L 280.7307434082031 229.7307586669922 L 280.7307434082031 232.7307586669922 C 280.7307434082031 232.7307586669922 270.7307434082031 232.7307586669922 270.7307434082031 232.7307586669922 L 270.7307434082031 229.7307586669922 Z M 250.7307434082031 229.7307586669922 L 260.7307434082031 229.7307586669922 L 260.7307434082031 232.7307586669922 C 260.7307434082031 232.7307586669922 250.7307434082031 232.7307586669922 250.7307434082031 232.7307586669922 L 250.7307434082031 229.7307586669922 Z M 230.7307434082031 229.7307586669922 L 240.7307434082031 229.7307586669922 L 240.7307434082031 232.7307586669922 C 240.7307434082031 232.7307586669922 230.7307434082031 232.7307586669922 230.7307434082031 232.7307586669922 L 230.7307434082031 229.7307586669922 Z M 210.7307434082031 229.7307586669922 L 220.7307434082031 229.7307586669922 L 220.7307434082031 232.7307586669922 C 220.7307434082031 232.7307586669922 210.7307434082031 232.7307586669922 210.7307434082031 232.7307586669922 L 210.7307434082031 229.7307586669922 Z M 190.7307434082031 229.7307586669922 L 200.7307434082031 229.7307586669922 L 200.7307434082031 232.7307586669922 C 200.7307434082031 232.7307586669922 190.7307434082031 232.7307586669922 190.7307434082031 232.7307586669922 L 190.7307434082031 229.7307586669922 Z M 170.7307434082031 229.7307586669922 L 180.7307434082031 229.7307586669922 L 180.7307434082031 232.7307586669922 C 180.7307434082031 232.7307586669922 170.7307434082031 232.7307586669922 170.7307434082031 232.7307586669922 L 170.7307434082031 229.7307586669922 Z M 150.7307434082031 229.7307586669922 L 160.7307434082031 229.7307586669922 L 160.7307434082031 232.7307586669922 C 160.7307434082031 232.7307586669922 150.7307434082031 232.7307586669922 150.7307434082031 232.7307586669922 L 150.7307434082031 229.7307586669922 Z M 130.7307434082031 229.7307586669922 L 140.7307434082031 229.7307586669922 L 140.7307434082031 232.7307586669922 C 140.7307434082031 232.7307586669922 130.7307434082031 232.7307586669922 130.7307434082031 232.7307586669922 L 130.7307434082031 229.7307586669922 Z M 110.7307434082031 229.7307586669922 L 120.7307434082031 229.7307586669922 L 120.7307434082031 232.7307586669922 C 120.7307434082031 232.7307586669922 110.7307434082031 232.7307586669922 110.7307434082031 232.7307586669922 L 110.7307434082031 229.7307586669922 Z M 90.73074340820313 229.7307586669922 L 100.7307434082031 229.7307586669922 L 100.7307434082031 232.7307586669922 C 100.7307434082031 232.7307586669922 90.73074340820313 232.7307586669922 90.73074340820313 232.7307586669922 L 90.73074340820313 229.7307586669922 Z M 70.73074340820313 229.7307586669922 L 80.73074340820313 229.7307586669922 L 80.73074340820313 232.7307586669922 C 80.73074340820313 232.7307586669922 70.73074340820313 232.7307586669922 70.73074340820313 232.7307586669922 L 70.73074340820313 229.7307586669922 Z M 50.73074340820313 229.7307586669922 L 60.73074340820313 229.7307586669922 L 60.73074340820313 232.7307586669922 C 60.73074340820313 232.7307586669922 50.73074340820313 232.7307586669922 50.73074340820313 232.7307586669922 L 50.73074340820313 229.7307586669922 Z M 30.73074340820313 229.7307586669922 L 40.73074340820313 229.7307586669922 L 40.73074340820313 232.7307586669922 C 40.73074340820313 232.7307586669922 30.73074340820313 232.7307586669922 30.73074340820313 232.7307586669922 L 30.73074340820313 229.7307586669922 Z M 10.73074340820313 229.7307586669922 L 20.73074340820313 229.7307586669922 L 20.73074340820313 232.7307586669922 C 20.73074340820313 232.7307586669922 10.73074340820313 232.7307586669922 10.73074340820313 232.7307586669922 L 10.73074340820313 229.7307586669922 Z M 0 223.4614868164063 L 3 223.4614868164063 L 3 232.7307586669922 L 0.730743408203125 232.7307586669922 L 0.730743408203125 232.7307586669922 L 3 232.7307586669922 L 0.730743408203125 232.7307586669922 L 0.730743408203125 232.7307586669922 C 0.730743408203125 232.7307586669922 0 232.7307586669922 0 232.7307586669922 L 0 223.4614868164063 Z M 0 203.4614868164063 L 3 203.4614868164063 L 3 213.4614868164063 L 0 213.4614868164063 L 0 203.4614868164063 Z M 0 183.4614868164063 L 3 183.4614868164063 L 3 193.4614868164063 L 0 193.4614868164063 L 0 183.4614868164063 Z M 0 163.4614868164063 L 3 163.4614868164063 L 3 173.4614868164063 L 0 173.4614868164063 L 0 163.4614868164063 Z M 0 143.4614868164063 L 3 143.4614868164063 L 3 153.4614868164063 L 0 153.4614868164063 L 0 143.4614868164063 Z M 0 123.4614944458008 L 3 123.4614944458008 L 3 133.4614868164063 L 0 133.4614868164063 L 0 123.4614944458008 Z M 0 103.4614868164063 L 3 103.4614868164063 L 3 113.4614944458008 L 0 113.4614944458008 L 0 103.4614868164063 Z M 0 83.46148681640625 L 3 83.46148681640625 L 3 93.46148681640625 L 0 93.46148681640625 L 0 83.46148681640625 Z M 0 63.46148681640625 L 3 63.46148681640625 L 3 73.46148681640625 L 0 73.46148681640625 L 0 63.46148681640625 Z M 0 43.46148681640625 L 3 43.46148681640625 L 3 53.46148681640625 L 0 53.46148681640625 L 0 43.46148681640625 Z M 0 23.46148681640625 L 3 23.46148681640625 L 3 33.46148681640625 L 0 33.46148681640625 L 0 23.46148681640625 Z M 0 3.46148681640625 L 3 3.46148681640625 L 3 13.46148681640625 L 0 13.46148681640625 L 0 3.46148681640625 Z"/></g><text class="b" transform="translate(324 369)"><tspan x="-85" y="0">pathfinder</tspan></text><text class="c" transform="translate(224 426.837)"><tspan x="0" y="0">A project made using Python.</tspan><tspan x="0" y="20"></tspan><tspan x="0" y="40">Uses breadth-first search, depth-first search,</tspan><tspan x="0" y="60">Dijkstra&apos;s algorithm, and the A* algorithm</tspan><tspan x="0" y="80">to find the shortest path between two points.</tspan><tspan x="0" y="100"></tspan><tspan x="0" y="120">Includes prompts from the command line and</tspan><tspan x="0" y="140">visualization using pyplot.</tspan></text><path class="d" d="M4750.005,308.99s-1.944-32.08,32.08-32.08h90.549s18.261-.6,19.222,32.08" transform="translate(-4537.985 70.821)"/></g><g transform="translate(395)"><g class="e" transform="translate(211 379)"><path class="g" d="M 392.5 231.2307891845703 L 1.5 231.2307891845703 L 1.5 1.499987006187439 L 74.29299926757813 1.499987006187439 L 392.5 1.499987006187439 L 392.5 231.2307891845703 Z"/><path class="h" d="M 3 3.000015258789063 L 3 229.7307586669922 L 391 229.7307586669922 L 391 3.000015258789063 L 74.29293823242188 3.000015258789063 L 3 3.000015258789063 M 0 1.52587890625e-05 L 74.29293823242188 1.52587890625e-05 L 394 1.52587890625e-05 L 394 232.7307586669922 L 0 232.7307586669922 L 0 1.52587890625e-05 Z"/></g><text class="b" transform="translate(324 369)"><tspan x="-85" y="0">pathfinder</tspan></text><text class="c" transform="translate(224 426.837)"><tspan x="0" y="0">A project made using Python.</tspan><tspan x="0" y="20"></tspan><tspan x="0" y="40">Uses breadth-first search, depth-first search,</tspan><tspan x="0" y="60">Dijkstra&apos;s algorithm, and the A* algorithm</tspan><tspan x="0" y="80">to find the shortest path between two points.</tspan><tspan x="0" y="100"></tspan><tspan x="0" y="120">Includes prompts from the command line and</tspan><tspan x="0" y="140">visualization using pyplot.</tspan></text><path class="f" d="M4750.005,308.99s-1.944-32.08,32.08-32.08h90.549s18.261-.6,19.222,32.08" transform="translate(-4537.985 70.821)"/></g></g></svg>