<svg xmlns="http://www.w3.org/2000/svg" width="480.17" height="162.163" viewBox="0 0 480.17 162.163"><defs><style>.a,.d{fill:#142239;}.a,.b{stroke-dasharray:10;}.b,.e{fill:none;stroke:#f6ff00;stroke-width:2px;}.c{fill:#fff;font-size:9px;font-family:NSimSun;}.f,.g{stroke:none;}.g{fill:#f6ff00;}</style></defs><g transform="translate(-147.106 -274.837)"><g transform="translate(76.515 51.269)"><g transform="translate(71 224.731)"><g class="a" transform="translate(0 19.124)"><path class="f" d="M0,0H240V141.876H0Z"/><path class="g" d="M 20 -1.52587890625e-05 L 30 -1.52587890625e-05 L 30 2.999984741210938 L 20 2.999984741210938 L 20 -1.52587890625e-05 Z M 40 -1.52587890625e-05 L 45.25459289550781 -1.52587890625e-05 L 50 -1.52587890625e-05 L 50 2.999984741210938 L 45.25459289550781 2.999984741210938 L 40 2.999984741210938 L 40 -1.52587890625e-05 Z M 60 -1.52587890625e-05 L 70 -1.52587890625e-05 L 70 2.999984741210938 L 60 2.999984741210938 L 60 -1.52587890625e-05 Z M 80 -1.52587890625e-05 L 90 -1.52587890625e-05 L 90 2.999984741210938 L 80 2.999984741210938 L 80 -1.52587890625e-05 Z M 100 -1.52587890625e-05 L 110 -1.52587890625e-05 L 110 2.999984741210938 L 100 2.999984741210938 L 100 -1.52587890625e-05 Z M 120 -1.52587890625e-05 L 130 -1.52587890625e-05 L 130 2.999984741210938 L 120 2.999984741210938 L 120 -1.52587890625e-05 Z M 140 -1.52587890625e-05 L 150 -1.52587890625e-05 L 150 2.999984741210938 L 140 2.999984741210938 L 140 -1.52587890625e-05 Z M 160 -1.52587890625e-05 L 170 -1.52587890625e-05 L 170 2.999984741210938 L 160 2.999984741210938 L 160 -1.52587890625e-05 Z M 180 -1.52587890625e-05 L 190 -1.52587890625e-05 L 190 2.999984741210938 L 180 2.999984741210938 L 180 -1.52587890625e-05 Z M 200 -1.52587890625e-05 L 210 -1.52587890625e-05 L 210 2.999984741210938 L 200 2.999984741210938 L 200 -1.52587890625e-05 Z M 220 -1.52587890625e-05 L 230 -1.52587890625e-05 L 230 2.999984741210938 L 220 2.999984741210938 L 220 -1.52587890625e-05 Z M 237 -1.52587890625e-05 L 240 -1.52587890625e-05 C 240 -1.52587890625e-05 240 9.999984741210938 240 9.999984741210938 L 237 9.999984741210938 L 237 -1.52587890625e-05 Z M 237 19.99998474121094 L 240 19.99998474121094 C 240 19.99998474121094 240 29.99998474121094 240 29.99998474121094 L 237 29.99998474121094 L 237 19.99998474121094 Z M 237 39.99998474121094 L 240 39.99998474121094 C 240 39.99998474121094 240 49.99998474121094 240 49.99998474121094 L 237 49.99998474121094 L 237 39.99998474121094 Z M 237 59.99998474121094 L 240 59.99998474121094 C 240 59.99998474121094 240 69.99998474121094 240 69.99998474121094 L 237 69.99998474121094 L 237 59.99998474121094 Z M 237 79.99998474121094 L 240 79.99998474121094 C 240 79.99998474121094 240 89.99998474121094 240 89.99998474121094 L 237 89.99998474121094 L 237 79.99998474121094 Z M 237 99.99998474121094 L 240 99.99998474121094 C 240 99.99998474121094 240 109.9999847412109 240 109.9999847412109 L 237 109.9999847412109 L 237 99.99998474121094 Z M 237 119.9999847412109 L 240 119.9999847412109 C 240 119.9999847412109 240 129.9999847412109 240 129.9999847412109 L 237 129.9999847412109 L 237 119.9999847412109 Z M 231.8758392333984 138.8758239746094 L 240 138.8758239746094 L 240 139.9999847412109 L 240 139.9999847412109 L 240 138.8758239746094 L 240 139.9999847412109 L 240 139.9999847412109 C 240 139.9999847412109 240 141.8758239746094 240 141.8758239746094 L 237 141.8758239746094 L 237 141.8758239746094 L 237 141.8758239746094 L 237 141.8758239746094 L 237 141.8758239746094 C 234.6853179931641 141.8758239746094 231.8758392333984 141.8758239746094 231.8758392333984 141.8758239746094 L 231.8758392333984 138.8758239746094 Z M 211.8758392333984 138.8758239746094 L 221.8758392333984 138.8758239746094 L 221.8758392333984 141.8758239746094 C 221.8758392333984 141.8758239746094 211.8758392333984 141.8758239746094 211.8758392333984 141.8758239746094 L 211.8758392333984 138.8758239746094 Z M 191.8758239746094 138.8758239746094 L 201.8758239746094 138.8758239746094 L 201.8758239746094 141.8758239746094 C 201.8758239746094 141.8758239746094 191.8758239746094 141.8758239746094 191.8758239746094 141.8758239746094 L 191.8758239746094 138.8758239746094 Z M 171.8758239746094 138.8758239746094 L 181.8758239746094 138.8758239746094 L 181.8758239746094 141.8758239746094 C 181.8758239746094 141.8758239746094 171.8758239746094 141.8758239746094 171.8758239746094 141.8758239746094 L 171.8758239746094 138.8758239746094 Z M 151.8758239746094 138.8758239746094 L 161.8758239746094 138.8758239746094 L 161.8758239746094 141.8758239746094 C 161.8758239746094 141.8758239746094 151.8758239746094 141.8758239746094 151.8758239746094 141.8758239746094 L 151.8758239746094 138.8758239746094 Z M 131.8758239746094 138.8758239746094 L 141.8758239746094 138.8758239746094 L 141.8758239746094 141.8758239746094 C 141.8758239746094 141.8758239746094 131.8758239746094 141.8758239746094 131.8758239746094 141.8758239746094 L 131.8758239746094 138.8758239746094 Z M 111.8758392333984 138.8758239746094 L 121.8758316040039 138.8758239746094 L 121.8758316040039 141.8758239746094 C 121.8758316040039 141.8758239746094 111.8758392333984 141.8758239746094 111.8758392333984 141.8758239746094 L 111.8758392333984 138.8758239746094 Z M 91.87583923339844 138.8758239746094 L 101.8758392333984 138.8758239746094 L 101.8758392333984 141.8758239746094 C 101.8758392333984 141.8758239746094 91.87583923339844 141.8758239746094 91.87583923339844 141.8758239746094 L 91.87583923339844 138.8758239746094 Z M 71.87583923339844 138.8758239746094 L 81.87583923339844 138.8758239746094 L 81.87583923339844 141.8758239746094 C 81.87583923339844 141.8758239746094 71.87583923339844 141.8758239746094 71.87583923339844 141.8758239746094 L 71.87583923339844 138.8758239746094 Z M 51.87583923339844 138.8758239746094 L 61.87583923339844 138.8758239746094 L 61.87583923339844 141.8758239746094 C 61.87583923339844 141.8758239746094 51.87583923339844 141.8758239746094 51.87583923339844 141.8758239746094 L 51.87583923339844 138.8758239746094 Z M 31.87583923339844 138.8758239746094 L 41.87583923339844 138.8758239746094 L 41.87583923339844 141.8758239746094 C 41.87583923339844 141.8758239746094 31.87583923339844 141.8758239746094 31.87583923339844 141.8758239746094 L 31.87583923339844 138.8758239746094 Z M 11.87583923339844 138.8758239746094 L 21.87583923339844 138.8758239746094 L 21.87583923339844 141.8758239746094 C 21.87583923339844 141.8758239746094 11.87583923339844 141.8758239746094 11.87583923339844 141.8758239746094 L 11.87583923339844 138.8758239746094 Z M 0 133.7516479492188 L 3 133.7516479492188 L 3 141.8758239746094 L 1.875839233398438 141.8758239746094 L 1.875839233398438 141.8758239746094 L 3 141.8758239746094 L 1.875839233398438 141.8758239746094 L 1.875839233398438 141.8758239746094 C 1.875839233398438 141.8758239746094 0 141.8758239746094 0 141.8758239746094 L 0 133.7516479492188 Z M 0 113.7516555786133 L 3 113.7516555786133 L 3 123.7516555786133 L 0 123.7516555786133 L 0 113.7516555786133 Z M 0 93.75164794921875 L 3 93.75164794921875 L 3 103.7516479492188 L 0 103.7516479492188 L 0 93.75164794921875 Z M 0 73.75165557861328 L 3 73.75165557861328 L 3 83.75164794921875 L 0 83.75164794921875 L 0 73.75165557861328 Z M 0 53.75165557861328 L 3 53.75165557861328 L 3 63.75165557861328 L 0 63.75165557861328 L 0 53.75165557861328 Z M 0 33.75165557861328 L 3 33.75165557861328 L 3 43.75165557861328 L 0 43.75165557861328 L 0 33.75165557861328 Z M 0 13.75164794921875 L 3 13.75164794921875 L 3 23.75165557861328 L 0 23.75165557861328 L 0 13.75164794921875 Z M 0 -1.52587890625e-05 L 10 -1.52587890625e-05 L 10 2.999984741210938 L 3 2.999984741210938 L 3 3.75164794921875 L 0 3.75164794921875 L 0 -1.52587890625e-05 Z"/></g><path class="b" d="M4750,296.53s-1.189-19.62,19.62-19.62H4825s11.168-.365,11.756,19.62" transform="translate(-4749.373 -276.909)"/><text class="c" transform="translate(10.485 39)"><tspan x="0" y="0">A project made using Python.</tspan><tspan x="0" y="15"></tspan><tspan x="0" y="30">Uses breadth-first search, depth-first search, </tspan><tspan x="0" y="45">Dijkstra&apos;s algorithm, and the A* algorithm </tspan><tspan x="0" y="60">to find the shortest path between two points.</tspan><tspan x="0" y="75"></tspan><tspan x="0" y="90">Includes prompts from the command line and </tspan><tspan x="0" y="105">visualization using pyplot.</tspan></text></g><text class="c" transform="translate(91.485 236.731)"><tspan x="0" y="0">pathfinder</tspan><tspan x="0" y="8"></tspan></text></g><g transform="translate(-77.724 51.109)"><g transform="translate(465 224.731)"><g class="d" transform="translate(0 19.162)"><path class="f" d="M 238.5 140.3378753662109 L 1.5 140.3378753662109 L 1.5 1.50000786781311 L 45.25459289550781 1.50000786781311 L 238.5 1.50000786781311 L 238.5 140.3378753662109 Z"/><path class="g" d="M 3 3.000015258789063 L 3 138.8378753662109 L 237 138.8378753662109 L 237 3.000015258789063 L 45.25459289550781 3.000015258789063 L 3 3.000015258789063 M 0 1.52587890625e-05 L 45.25459289550781 1.52587890625e-05 L 240 1.52587890625e-05 L 240 141.8378753662109 L 0 141.8378753662109 L 0 1.52587890625e-05 Z"/></g><path class="e" d="M4750,296.569s-1.191-19.659,19.659-19.659h55.489s11.191-.366,11.779,19.659" transform="translate(-4749.372 -276.909)"/><text class="c" transform="translate(10.724 39.16)"><tspan x="0" y="0">A project made using Python.</tspan><tspan x="0" y="15"></tspan><tspan x="0" y="30">Uses breadth-first search, depth-first search, </tspan><tspan x="0" y="45">Dijkstra&apos;s algorithm, and the A* algorithm </tspan><tspan x="0" y="60">to find the shortest path between two points.</tspan><tspan x="0" y="75"></tspan><tspan x="0" y="90">Includes prompts from the command line and </tspan><tspan x="0" y="105">visualization using pyplot.</tspan></text></g><text class="c" transform="translate(484.724 236.891)"><tspan x="0" y="0">pathfinder</tspan><tspan x="0" y="8"></tspan></text></g></g></svg>