<svg xmlns="http://www.w3.org/2000/svg" width="395.529" height="266.274" viewBox="0 0 395.529 266.274"><defs><style>.a{fill:#142239;}.a,.d{stroke-dasharray:10;}.b,.c{fill:#fff;font-family:SimSun;}.b{font-size:17px;}.c{font-size:16px;}.d{fill:none;stroke:#f6ff00;stroke-width:2px;}.e,.f{stroke:none;}.f{fill:#f6ff00;}</style></defs><g transform="translate(-209.471 -345.726)"><g class="a" transform="translate(211 379)"><path class="e" d="M0,0H394V233H0Z"/><path class="f" d="M 0 0 L 10 0 L 10 3 L 0 3 L 0 0 Z M 20 0 L 30 0 L 30 3 L 20 3 L 20 0 Z M 40 0 L 50 0 L 50 3 L 40 3 L 40 0 Z M 60 0 L 70 0 L 70 3 L 60 3 L 60 0 Z M 80 0 L 90 0 L 90 3 L 80 3 L 80 0 Z M 100 0 L 110 0 L 110 3 L 100 3 L 100 0 Z M 120 0 L 130 0 L 130 3 L 120 3 L 120 0 Z M 140 0 L 150 0 L 150 3 L 140 3 L 140 0 Z M 160 0 L 170 0 L 170 3 L 160 3 L 160 0 Z M 180 0 L 190 0 L 190 3 L 180 3 L 180 0 Z M 200 0 L 210 0 L 210 3 L 200 3 L 200 0 Z M 220 0 L 230 0 L 230 3 L 220 3 L 220 0 Z M 240 0 L 250 0 L 250 3 L 240 3 L 240 0 Z M 260 0 L 270 0 L 270 3 L 260 3 L 260 0 Z M 280 0 L 290 0 L 290 3 L 280 3 L 280 0 Z M 300 0 L 310 0 L 310 3 L 300 3 L 300 0 Z M 320 0 L 330 0 L 330 3 L 320 3 L 320 0 Z M 340 0 L 350 0 L 350 3 L 340 3 L 340 0 Z M 360 0 L 370 0 L 370 3 L 360 3 L 360 0 Z M 380 0 L 390 0 L 390 3 L 380 3 L 380 0 Z M 391 6 L 394 6 C 394 6 394 16 394 16 L 391 16 L 391 6 Z M 391 26 L 394 26 C 394 26 394 36 394 36 L 391 36 L 391 26 Z M 391 46 L 394 46 C 394 46 394 56 394 56 L 391 56 L 391 46 Z M 391 66 L 394 66 C 394 66 394 76 394 76 L 391 76 L 391 66 Z M 391 86 L 394 86 C 394 86 394 96 394 96 L 391 96 L 391 86 Z M 391 106 L 394 106 C 394 106 394 116 394 116 L 391 116 L 391 106 Z M 391 126 L 394 126 C 394 126 394 136 394 136 L 391 136 L 391 126 Z M 391 146 L 394 146 C 394 146 394 156 394 156 L 391 156 L 391 146 Z M 391 166 L 394 166 C 394 166 394 176 394 176 L 391 176 L 391 166 Z M 391 186 L 394 186 C 394 186 394 196 394 196 L 391 196 L 391 186 Z M 391 206 L 394 206 C 394 206 394 216 394 216 L 391 216 L 391 206 Z M 391 226 L 394 226 C 394 226 394 233 394 233 L 391 233 L 391 233 L 391 233 L 391 233 L 391 233 C 391 233 391 233 391 233 L 391 230 L 391 230 L 391 226 Z M 371 230 L 381 230 L 381 233 C 381 233 371 233 371 233 L 371 230 Z M 351 230 L 361 230 L 361 233 C 361 233 351 233 351 233 L 351 230 Z M 331 230 L 341 230 L 341 233 C 341 233 331 233 331 233 L 331 230 Z M 311 230 L 321 230 L 321 233 C 321 233 311 233 311 233 L 311 230 Z M 291 230 L 301 230 L 301 233 C 301 233 291 233 291 233 L 291 230 Z M 271 230 L 281 230 L 281 233 C 281 233 271 233 271 233 L 271 230 Z M 251 230 L 261 230 L 261 233 C 261 233 251 233 251 233 L 251 230 Z M 231 230 L 241 230 L 241 233 C 241 233 231 233 231 233 L 231 230 Z M 211 230 L 221 230 L 221 233 C 221 233 211 233 211 233 L 211 230 Z M 191 230 L 201 230 L 201 233 C 201 233 191 233 191 233 L 191 230 Z M 171 230 L 181 230 L 181 233 C 181 233 171 233 171 233 L 171 230 Z M 151 230 L 161 230 L 161 233 C 161 233 151 233 151 233 L 151 230 Z M 131 230 L 141 230 L 141 233 C 141 233 131 233 131 233 L 131 230 Z M 111 230 L 121 230 L 121 233 C 121 233 111 233 111 233 L 111 230 Z M 91 230 L 101 230 L 101 233 C 101 233 91 233 91 233 L 91 230 Z M 71 230 L 81 230 L 81 233 C 81 233 71 233 71 233 L 71 230 Z M 51 230 L 61 230 L 61 233 C 61 233 51 233 51 233 L 51 230 Z M 31 230 L 41 230 L 41 233 C 41 233 31 233 31 233 L 31 230 Z M 11 230 L 21 230 L 21 233 C 21 233 11 233 11 233 L 11 230 Z M 0 224 L 3 224 L 3 233 L 1 233 L 1 233 L 3 233 L 1 233 L 1 233 C 1 233 0 233 0 233 L 0 224 Z M 0 204 L 3 204 L 3 214 L 0 214 L 0 204 Z M 0 184 L 3 184 L 3 194 L 0 194 L 0 184 Z M 0 164 L 3 164 L 3 174 L 0 174 L 0 164 Z M 0 144 L 3 144 L 3 154 L 0 154 L 0 144 Z M 0 124 L 3 124 L 3 134 L 0 134 L 0 124 Z M 0 104 L 3 104 L 3 114 L 0 114 L 0 104 Z M 0 84 L 3 84 L 3 94 L 0 94 L 0 84 Z M 0 64 L 3 64 L 3 74 L 0 74 L 0 64 Z M 0 44 L 3 44 L 3 54 L 0 54 L 0 44 Z M 0 24 L 3 24 L 3 34 L 0 34 L 0 24 Z M 0 4 L 3 4 L 3 14 L 0 14 L 0 4 Z"/></g><text class="b" transform="translate(324 369)"><tspan x="-85" y="0">pathfinder</tspan></text><text class="c" transform="translate(224 427)"><tspan x="0" y="0">A project made using Python.</tspan><tspan x="0" y="20"></tspan><tspan x="0" y="40">Uses breadth-first search, depth-first search,</tspan><tspan x="0" y="60">Dijkstra&apos;s algorithm, and the A* algorithm</tspan><tspan x="0" y="80">to find the shortest path between two points.</tspan><tspan x="0" y="100"></tspan><tspan x="0" y="120">Includes prompts from the command line and</tspan><tspan x="0" y="140">visualization using pyplot.</tspan></text><path class="d" d="M4750.005,308.99s-1.944-32.08,32.08-32.08h90.549s18.261-.6,19.222,32.08" transform="translate(-4539.479 69.821)"/></g></svg>