<svg xmlns="http://www.w3.org/2000/svg" width="455" height="261" viewBox="0 0 455 261"><defs><style>.a,.n{fill:none;}.a{stroke:#fff;}.b,.c,.j{fill:#fff;}.b{font-size:12px;font-family:SimSun;}.c,.d{font-size:13px;font-family:Consolas;}.d{fill:#e373fa;}.e{fill:#f2b438;}.f{fill:#4094f3;}.g{fill:#30e2dd;}.h{fill:#f9f9f9;}.i{fill:#82f864;}.k{fill:#ff0a0a;}.l{fill:#fff707;}.m{fill:#02ff61;}.n{stroke:#000;stroke-linecap:round;}</style></defs><g transform="translate(0.5 0.5)"><path class="a" d="M643.306,79.226v260h454v-260Z" transform="translate(-643.306 -79.226)"/><path class="a" d="M643.306,107.218h454.054" transform="translate(-643.306 -85.47)"/><path class="a" d="M676.039,107.218V345.366" transform="translate(-651.184 -85.47)"/><text class="b" transform="translate(4.599 14.598)"><tspan x="0" y="0">resume.java</tspan></text><text class="c" transform="translate(4.599 39.598)"><tspan x="0" y="0">1</tspan><tspan x="0" y="15">2</tspan><tspan x="0" y="30">3</tspan><tspan x="0" y="45">4</tspan><tspan x="0" y="60">5</tspan><tspan x="0" y="75">6</tspan><tspan x="0" y="90">7</tspan><tspan x="0" y="105">8</tspan><tspan x="0" y="120">9</tspan><tspan x="0" y="135">10</tspan><tspan x="0" y="150">11</tspan><tspan x="0" y="165">12</tspan><tspan x="0" y="180">13</tspan><tspan x="0" y="195">14</tspan><tspan x="0" y="210">15</tspan></text><text class="d" transform="translate(33.599 38.598)"><tspan x="0" y="0">public class </tspan><tspan class="e" y="0">Main {</tspan><tspan x="0" y="15" xml:space="preserve">    public static void </tspan><tspan class="f" y="15">main</tspan><tspan class="g" y="15">(</tspan><tspan y="15">String</tspan><tspan class="e" y="15">[] </tspan><tspan class="h" y="15">args</tspan><tspan class="g" y="15">) </tspan><tspan class="e" y="15">{</tspan><tspan x="0" y="30" xml:space="preserve">        </tspan><tspan class="e" y="30">System.out.</tspan><tspan class="f" y="30">println</tspan><tspan class="g" y="30">(&quot;</tspan><tspan class="i" y="30">Getting resume...</tspan><tspan class="g" y="30">&quot;);</tspan><tspan x="0" y="45" xml:space="preserve">        Resume </tspan><tspan class="j" y="45">adis_resume</tspan><tspan y="45"> </tspan><tspan class="g" y="45">=</tspan><tspan y="45" xml:space="preserve"> new </tspan><tspan class="f" y="45">Resume</tspan><tspan class="g" y="45">();</tspan><tspan class="e" y="45"></tspan><tspan class="e"><tspan x="0" y="60" xml:space="preserve">  }</tspan><tspan x="0" y="75">}</tspan></tspan><tspan x="0" y="90"></tspan><tspan x="0" y="105">class </tspan><tspan class="e" y="105">Resume {</tspan><tspan x="0" y="120" xml:space="preserve">    public void </tspan><tspan class="f" y="120">improveResume</tspan><tspan class="g" y="120">()</tspan><tspan y="120"> </tspan><tspan class="e" y="120">{</tspan><tspan x="0" y="135" xml:space="preserve">        </tspan><tspan class="e" y="135">System.out.</tspan><tspan class="f" y="135">println</tspan><tspan class="g" y="135">(&quot;</tspan><tspan class="i" y="135">Getting more experience...</tspan><tspan class="g" y="135">&quot;);</tspan><tspan x="0" y="150" xml:space="preserve">        </tspan><tspan class="e" y="150">System.out.</tspan><tspan class="f" y="150">println</tspan><tspan class="g" y="150">(&quot;</tspan><tspan class="i" y="150">Learning new languages...</tspan><tspan class="g" y="150">&quot;);</tspan><tspan x="0" y="165" xml:space="preserve">        </tspan><tspan class="e" y="165">System.out.</tspan><tspan class="f" y="165">println</tspan><tspan class="g" y="165">(</tspan><tspan class="i" y="165">&quot;Doing cool projects...</tspan><tspan class="g" y="165">&quot;);</tspan><tspan class="e"><tspan x="0" y="180" xml:space="preserve">    }</tspan><tspan x="0" y="195">}</tspan></tspan></text><g transform="translate(-1009.401 -693.902)"><circle class="k" cx="7.5" cy="7.5" r="7.5" transform="translate(1444 697)"/><ellipse class="l" cx="8" cy="7.5" rx="8" ry="7.5" transform="translate(1425 697)"/><ellipse class="m" cx="8" cy="7.5" rx="8" ry="7.5" transform="translate(1406 697)"/><path class="n" d="M0,0,5.6,5.6" transform="translate(1413.962 700.705) rotate(45)"/><path class="n" d="M0,0,5.6,5.6" transform="translate(1454.261 707.605) rotate(-180)"/><path class="n" d="M5.6,0,0,5.6" transform="translate(1413.948 700.691) rotate(45)"/><path class="n" d="M5.6,0,0,5.6" transform="translate(1454.281 707.604) rotate(-180)"/><path class="n" d="M5.34,0,0,5.34" transform="translate(1432.866 700.884) rotate(45)"/></g></g></svg>